<?xml version="1.0" encoding="utf-8"?>
<!-- Generator: Adobe Illustrator 28.0.0, SVG Export Plug-In . SVG Version: 6.00 Build 0)  -->
<svg version="1.1" id="Capa_2_00000042694534778326190160000010098496690353911443_"
	 xmlns="http://www.w3.org/2000/svg" xmlns:xlink="http://www.w3.org/1999/xlink" x="0px" y="0px" viewBox="0 0 231.9 68.2"
	 style="enable-background:new 0 0 231.9 68.2;" xml:space="preserve">
<style type="text/css">
	.st0{fill:#0447BC;}
</style>
<g>
	<path class="st0" d="M69.8,40.6v-40H51.2V21h-0.5L41.9,0.6H23.6c-1.8,0-3.3,1.5-3.3,3.3v40h18.5V23.5h0.5l8.8,20.4h18.4
		C68.3,43.9,69.8,42.4,69.8,40.6z"/>
	<path class="st0" d="M0,11.4c0,1.6,1.3,2.9,2.9,2.9H13L0,23.7v17.9c0,1.2,1,2.2,2.2,2.2h16.3V0.6H0V11.4z"/>
	<path class="st0" d="M112,24.9c-1.9-0.1-3.7,0.9-4.6,2.6c-0.5,0.8-1.1,1.5-1.8,2c-1.5,1-3.6,1.5-6.3,1.5c-3,0-5.3-0.7-6.7-2.1
		c-1.4-1.4-2.1-3.6-2.1-6.5s0.7-5.1,2.1-6.5s3.7-2.1,6.7-2.1c2.6,0,4.5,0.5,5.9,1.5c0.7,0.5,1.2,1.2,1.7,2c1,1.7,2.9,2.7,4.8,2.5
		l14-1c-0.2-6.3-2.4-11-6.8-14.1C114.6,1.5,108,0,99.1,0c-9.4,0-16.3,1.8-20.6,5.4v0c-4.4,3.6-6.5,9.2-6.5,16.9s2.2,13.3,6.6,16.9
		c4.4,3.6,11.3,5.4,20.8,5.4c8.9,0,15.6-1.5,20.1-4.6c4.5-3.1,6.8-7.8,6.9-14.1L112,24.9z"/>
	<path class="st0" d="M159.3,43.9h20.4L166.5,3.8c-0.6-1.9-2.4-3.1-4.3-3.1h-24.5l-14.2,43.3h20.4l1.5-6.2h12.5L159.3,43.9z
		 M148.1,26.6l3.3-13.6h0.5l3.3,13.6H148.1z"/>
	<path class="st0" d="M228.4,6.2c-2.4-2.5-5.2-4.1-8.6-4.7c-3.4-0.6-7.8-0.9-13.4-0.9h-24.6h0v43.3h14.7c2.1,0,3.8-1.7,3.8-3.8v-4.8
		h6.1c5.6,0,10.1-0.3,13.5-0.8c3.4-0.5,6.2-2.1,8.5-4.6c2.3-2.5,3.5-6.4,3.5-11.8C231.9,12.7,230.8,8.7,228.4,6.2z M211.9,21.9
		c-1,0.6-2.8,0.9-5.5,0.9v0h-6.1v-8.7h6.1c2.7,0,4.5,0.3,5.5,0.9c1,0.6,1.5,1.8,1.5,3.4C213.4,20.2,212.9,21.3,211.9,21.9z"/>
	<path class="st0" d="M28.9,61.3c-0.6,0.4-1.3,0.6-2.2,0.6c-0.6,0-1.1-0.1-1.6-0.3c-0.5-0.2-0.8-0.5-1.1-0.9s-0.5-0.8-0.7-1.3
		c-0.2-0.5-0.2-1-0.2-1.6c0-0.6,0.1-1.1,0.2-1.6c0.2-0.5,0.4-0.9,0.7-1.3c0.3-0.4,0.7-0.6,1.1-0.8c0.4-0.2,0.9-0.3,1.5-0.3
		s1.1,0.1,1.5,0.3c0.5,0.2,0.8,0.5,1.1,0.8c0.3,0.4,0.5,0.8,0.5,1.3h2.3c-0.1-0.9-0.4-1.7-0.8-2.4s-1.1-1.2-1.9-1.6
		c-0.8-0.4-1.7-0.6-2.8-0.6c-1,0-1.9,0.2-2.6,0.5s-1.3,0.8-1.8,1.4c-0.5,0.6-0.8,1.2-1,1.9c-0.2,0.7-0.3,1.4-0.3,2.1v0.3
		c0,0.7,0.1,1.3,0.3,2c0.2,0.7,0.6,1.3,1,1.9c0.5,0.6,1.1,1.1,1.8,1.4c0.7,0.4,1.7,0.5,2.7,0.5c1.1,0,2.1-0.2,2.8-0.6
		c0.8-0.4,1.4-1,1.9-1.7s0.7-1.4,0.8-2.3H30C29.9,60.3,29.5,60.9,28.9,61.3z"/>
	<path class="st0" d="M39.5,55.3c-0.6-0.2-1.3-0.4-2.2-0.4c-0.3,0-0.6,0-0.9,0c-0.3,0-0.6,0-0.9,0c-0.3,0-0.6,0-0.8,0.1V57
		c0.3,0,0.6,0,1-0.1c0.4,0,0.8,0,1.1,0c0.4,0,0.7,0,1,0c0.5,0,0.9,0.1,1.1,0.4c0.2,0.2,0.4,0.6,0.4,1.1v0.1h-1.8
		c-0.8,0-1.4,0.1-2,0.3c-0.6,0.2-1,0.5-1.3,0.9c-0.3,0.4-0.5,0.9-0.5,1.6c0,0.6,0.1,1.1,0.4,1.5c0.3,0.4,0.6,0.7,1.1,1
		s1,0.3,1.6,0.3c0.6,0,1.1-0.1,1.5-0.3c0.4-0.2,0.7-0.5,1-0.9c0.1-0.2,0.2-0.4,0.3-0.6v1.7h1.8v-5.3c0-0.8-0.2-1.5-0.5-2
		C40.6,55.9,40.1,55.5,39.5,55.3z M38.3,62.2c-0.3,0.1-0.5,0.2-0.9,0.2c-0.5,0-0.9-0.1-1.2-0.4c-0.3-0.2-0.4-0.6-0.4-1
		s0.1-0.7,0.4-1c0.3-0.2,0.7-0.4,1.2-0.4h1.8v0.8c0,0.5-0.1,0.8-0.3,1.1S38.5,62.1,38.3,62.2z"/>
	<polygon class="st0" points="43,52.1 43,53.8 44.1,53.8 44.1,63.7 46.3,63.7 46.3,53.8 46.3,52.1 44.1,52.1 	"/>
	<path class="st0" d="M49.4,52c-0.2,0.2-0.3,0.5-0.3,0.9c0,0.4,0.1,0.7,0.3,0.9c0.2,0.2,0.5,0.3,1,0.3c0.4,0,0.8-0.1,1-0.3
		c0.2-0.2,0.3-0.5,0.3-0.9c0-0.3-0.1-0.6-0.3-0.9c-0.2-0.2-0.5-0.3-1-0.3C49.9,51.7,49.6,51.8,49.4,52z"/>
	<polygon class="st0" points="48.4,55.1 48.4,56.7 49.6,56.7 49.6,63.7 51.8,63.7 51.8,56.7 51.8,55.1 49.6,55.1 	"/>
	<path class="st0" d="M61,56.4c-0.3-0.5-0.6-0.8-1.1-1.1c-0.5-0.3-1.1-0.4-1.8-0.4c-0.6,0-1.2,0.1-1.7,0.3c-0.5,0.2-0.9,0.5-1.3,0.9
		c-0.4,0.4-0.6,0.9-0.8,1.4c-0.2,0.5-0.3,1.1-0.3,1.7v0.3c0,0.6,0.1,1.2,0.3,1.8c0.2,0.5,0.5,1,0.9,1.4s0.8,0.7,1.3,0.9
		s1.1,0.3,1.7,0.3c0.7,0,1.3-0.1,1.8-0.4c0.5-0.3,1-0.7,1.3-1.3c0.1-0.1,0.1-0.3,0.2-0.4v1.9h1.8V52.1H61V56.4z M61.1,59.7
		c0,0.5-0.1,1-0.3,1.3c-0.2,0.4-0.5,0.7-0.9,0.9s-0.8,0.3-1.2,0.3c-0.5,0-0.9-0.1-1.2-0.3s-0.7-0.5-0.9-0.9s-0.3-0.9-0.3-1.4
		c0-0.6,0.1-1,0.3-1.4s0.5-0.7,0.9-1s0.8-0.3,1.3-0.3c0.4,0,0.8,0.1,1.2,0.3s0.7,0.5,0.9,0.8c0.2,0.3,0.3,0.8,0.3,1.3V59.7z"/>
	<path class="st0" d="M71.2,55.3C70.7,55.1,69.9,55,69,55c-0.3,0-0.6,0-0.9,0c-0.3,0-0.6,0-0.9,0c-0.3,0-0.6,0-0.8,0.1V57
		c0.3,0,0.6,0,1-0.1c0.4,0,0.8,0,1.1,0s0.7,0,1,0c0.5,0,0.9,0.1,1.1,0.4c0.2,0.2,0.4,0.6,0.4,1.1v0.1h-1.8c-0.8,0-1.4,0.1-2,0.3
		c-0.6,0.2-1,0.5-1.3,0.9c-0.3,0.4-0.5,0.9-0.5,1.6c0,0.6,0.1,1.1,0.4,1.5c0.3,0.4,0.6,0.7,1.1,1s1,0.3,1.6,0.3
		c0.6,0,1.1-0.1,1.5-0.3c0.4-0.2,0.7-0.5,1-0.9c0.1-0.2,0.2-0.4,0.3-0.6v1.7H73v-5.3c0-0.8-0.2-1.5-0.5-2
		C72.3,55.9,71.8,55.5,71.2,55.3z M70,62.2c-0.3,0.1-0.5,0.2-0.9,0.2c-0.5,0-0.9-0.1-1.2-0.4c-0.3-0.2-0.4-0.6-0.4-1s0.1-0.7,0.4-1
		c0.3-0.2,0.7-0.4,1.2-0.4h1.8v0.8c0,0.5-0.1,0.8-0.3,1.1C70.4,61.9,70.2,62.1,70,62.2z"/>
	<path class="st0" d="M82.1,56.4c-0.3-0.5-0.6-0.8-1.1-1.1c-0.5-0.3-1.1-0.4-1.8-0.4c-0.6,0-1.2,0.1-1.7,0.3
		c-0.5,0.2-0.9,0.5-1.3,0.9c-0.4,0.4-0.6,0.9-0.8,1.4c-0.2,0.5-0.3,1.1-0.3,1.7v0.3c0,0.6,0.1,1.2,0.3,1.8c0.2,0.5,0.5,1,0.9,1.4
		c0.4,0.4,0.8,0.7,1.3,0.9c0.5,0.2,1.1,0.3,1.7,0.3c0.7,0,1.3-0.1,1.8-0.4c0.5-0.3,1-0.7,1.3-1.3c0.1-0.1,0.1-0.3,0.2-0.4v1.9h1.8
		V52.1h-2.2V56.4z M82.2,59.7c0,0.5-0.1,1-0.3,1.3c-0.2,0.4-0.5,0.7-0.9,0.9s-0.8,0.3-1.2,0.3c-0.5,0-0.9-0.1-1.2-0.3
		c-0.4-0.2-0.7-0.5-0.9-0.9c-0.2-0.4-0.3-0.9-0.3-1.4c0-0.6,0.1-1,0.3-1.4c0.2-0.4,0.5-0.7,0.9-1c0.4-0.2,0.8-0.3,1.3-0.3
		c0.4,0,0.8,0.1,1.2,0.3c0.4,0.2,0.7,0.5,0.9,0.8c0.2,0.3,0.3,0.8,0.3,1.3V59.7z"/>
	<path class="st0" d="M97.7,57c0-0.1-0.1-0.3-0.1-0.4c-0.3-0.6-0.7-1-1.3-1.3c-0.5-0.3-1.2-0.5-1.9-0.5c-0.6,0-1.2,0.1-1.7,0.3
		s-0.9,0.5-1.3,0.9s-0.7,0.9-0.9,1.4c-0.2,0.5-0.3,1.1-0.3,1.7v0.4c0,0.6,0.1,1.2,0.3,1.7c0.2,0.5,0.5,1,0.8,1.4
		c0.4,0.4,0.8,0.7,1.3,0.9c0.5,0.2,1.1,0.3,1.7,0.3c0.7,0,1.3-0.1,1.8-0.4c0.4-0.3,0.8-0.6,1.1-1.1v4.4h2.2V55.1h-1.8V57z
		 M96.1,61.8c-0.4,0.2-0.8,0.3-1.2,0.3c-0.5,0-0.9-0.1-1.2-0.3c-0.4-0.2-0.7-0.5-0.9-1c-0.2-0.4-0.3-0.9-0.3-1.4s0.1-1,0.3-1.4
		c0.2-0.4,0.5-0.7,0.9-1c0.4-0.2,0.8-0.4,1.3-0.4c0.4,0,0.8,0.1,1.2,0.3c0.4,0.2,0.7,0.5,0.9,0.8s0.3,0.8,0.3,1.3v0.6
		c0,0.5-0.1,1-0.3,1.3C96.8,61.3,96.5,61.6,96.1,61.8z"/>
	<path class="st0" d="M107.7,60.2c0,0.6-0.2,1-0.5,1.3c-0.3,0.3-0.7,0.5-1.2,0.5c-0.5,0-0.9-0.2-1.2-0.5s-0.4-0.7-0.4-1.3v-5.2h-2.2
		v5c0,1.3,0.3,2.3,0.8,2.9s1.3,1,2.3,1h0.1c0.7,0,1.2-0.1,1.7-0.4s0.8-0.7,1-1.3c0.1-0.2,0.1-0.4,0.2-0.6v2.1h1.8v-8.7h-2.2V60.2z"
		/>
	<path class="st0" d="M118.9,55.4c-0.6-0.4-1.4-0.6-2.3-0.6c-0.7,0-1.3,0.1-1.9,0.4c-0.5,0.2-1,0.6-1.4,1c-0.4,0.4-0.6,0.9-0.8,1.4
		c-0.2,0.5-0.3,1.1-0.3,1.7v0.3c0,0.6,0.1,1.1,0.3,1.6c0.2,0.5,0.5,1,0.8,1.4c0.4,0.4,0.8,0.8,1.4,1c0.6,0.3,1.2,0.4,1.9,0.4
		c0.7,0,1.3-0.1,1.9-0.4c0.6-0.2,1-0.6,1.4-1c0.4-0.4,0.6-1,0.7-1.6h-2.1c-0.1,0.3-0.3,0.6-0.7,0.8c-0.3,0.2-0.8,0.3-1.3,0.3
		c-0.5,0-1-0.1-1.3-0.4c-0.3-0.2-0.6-0.6-0.8-1c-0.1-0.3-0.2-0.6-0.2-0.9h6.5v-0.8c0-0.8-0.2-1.5-0.5-2.1S119.5,55.8,118.9,55.4z
		 M115.3,57c0.3-0.2,0.8-0.3,1.2-0.3c0.5,0,0.9,0.1,1.2,0.3c0.3,0.2,0.6,0.5,0.7,0.9c0.1,0.2,0.2,0.5,0.2,0.7h-4.3
		c0-0.2,0.1-0.5,0.2-0.7C114.7,57.5,115,57.2,115.3,57z"/>
	<path class="st0" d="M132.7,59.3c-0.6-0.5-1.4-0.7-2.4-0.8l-0.8-0.1c-0.5-0.1-0.8-0.2-1-0.3s-0.3-0.4-0.3-0.6
		c0-0.3,0.1-0.5,0.4-0.7c0.3-0.2,0.6-0.3,1.1-0.3c0.5,0,0.9,0.1,1.2,0.3c0.3,0.2,0.4,0.5,0.5,0.8h2c0-0.9-0.4-1.6-1-2.1
		c-0.7-0.5-1.5-0.7-2.6-0.7c-0.7,0-1.3,0.1-1.8,0.3c-0.5,0.2-0.9,0.5-1.2,0.9c-0.3,0.4-0.4,0.9-0.4,1.5c0,0.7,0.3,1.3,0.8,1.8
		c0.5,0.5,1.3,0.7,2.2,0.8l0.7,0.1c0.6,0.1,1,0.2,1.2,0.4c0.2,0.2,0.4,0.4,0.4,0.7c0,0.3-0.2,0.6-0.5,0.8c-0.3,0.2-0.7,0.3-1.3,0.3
		c-0.6,0-1.1-0.1-1.4-0.4s-0.5-0.5-0.5-0.8h-2c0,0.9,0.4,1.6,1.1,2.1s1.6,0.8,2.8,0.8c0.8,0,1.4-0.1,2-0.3c0.6-0.2,1-0.6,1.3-1
		c0.3-0.4,0.5-0.9,0.5-1.5C133.6,60.4,133.3,59.8,132.7,59.3z"/>
	<path class="st0" d="M141.8,55.4c-0.6-0.4-1.4-0.6-2.3-0.6c-0.7,0-1.3,0.1-1.9,0.4c-0.5,0.2-1,0.6-1.4,1s-0.6,0.9-0.8,1.4
		c-0.2,0.5-0.3,1.1-0.3,1.7v0.3c0,0.6,0.1,1.1,0.3,1.6c0.2,0.5,0.5,1,0.8,1.4s0.8,0.8,1.4,1c0.6,0.3,1.2,0.4,1.9,0.4
		c0.7,0,1.3-0.1,1.9-0.4s1-0.6,1.4-1s0.6-1,0.7-1.6h-2.1c-0.1,0.3-0.3,0.6-0.7,0.8c-0.3,0.2-0.8,0.3-1.3,0.3c-0.5,0-1-0.1-1.3-0.4
		c-0.4-0.2-0.6-0.6-0.8-1c-0.1-0.3-0.2-0.6-0.2-0.9h6.5v-0.8c0-0.8-0.2-1.5-0.5-2.1C142.9,56.3,142.5,55.8,141.8,55.4z M138.2,57
		c0.3-0.2,0.8-0.3,1.2-0.3c0.5,0,0.9,0.1,1.2,0.3c0.3,0.2,0.6,0.5,0.7,0.9c0.1,0.2,0.2,0.5,0.2,0.7h-4.3c0-0.2,0.1-0.5,0.2-0.7
		C137.6,57.5,137.9,57.2,138.2,57z"/>
	<path class="st0" d="M153.1,55.9c-0.4,0.5-0.7,1.2-0.7,2v-2.8h-1.8v8.6h2.2v-4.5c0-0.8,0.2-1.3,0.6-1.7s1-0.6,1.7-0.6h0.6V55h-0.3
		C154.4,55,153.6,55.3,153.1,55.9z"/>
	<path class="st0" d="M163.6,55.4c-0.6-0.4-1.4-0.6-2.3-0.6c-0.7,0-1.3,0.1-1.9,0.4s-1,0.6-1.4,1c-0.4,0.4-0.6,0.9-0.8,1.4
		c-0.2,0.5-0.3,1.1-0.3,1.7v0.3c0,0.6,0.1,1.1,0.3,1.6c0.2,0.5,0.5,1,0.8,1.4c0.4,0.4,0.8,0.8,1.4,1c0.6,0.3,1.2,0.4,1.9,0.4
		c0.7,0,1.3-0.1,1.9-0.4s1-0.6,1.4-1c0.4-0.4,0.6-1,0.7-1.6h-2.1c-0.1,0.3-0.3,0.6-0.7,0.8c-0.3,0.2-0.8,0.3-1.3,0.3
		c-0.5,0-1-0.1-1.3-0.4c-0.4-0.2-0.6-0.6-0.8-1c-0.1-0.3-0.2-0.6-0.2-0.9h6.5v-0.8c0-0.8-0.2-1.5-0.5-2.1
		C164.7,56.3,164.2,55.8,163.6,55.4z M160,57c0.3-0.2,0.8-0.3,1.2-0.3c0.5,0,0.9,0.1,1.2,0.3c0.3,0.2,0.6,0.5,0.7,0.9
		c0.1,0.2,0.2,0.5,0.2,0.7h-4.3c0-0.2,0.1-0.5,0.2-0.7C159.4,57.5,159.7,57.2,160,57z"/>
	<path class="st0" d="M175.7,56.1c-0.4-0.4-0.8-0.7-1.3-0.9s-1-0.3-1.7-0.3c-0.7,0-1.3,0.1-1.8,0.4c-0.5,0.3-1,0.7-1.3,1.3
		c-0.1,0.2-0.2,0.5-0.3,0.7v-2.2h-1.8v11.8h2.2v-4.4c0.3,0.5,0.7,0.8,1.2,1.1c0.5,0.3,1.1,0.4,1.8,0.4c0.6,0,1.2-0.1,1.7-0.3
		s0.9-0.5,1.3-0.9c0.4-0.4,0.6-0.9,0.8-1.4s0.3-1.1,0.3-1.8v-0.3c0-0.6-0.1-1.2-0.3-1.7C176.4,57,176.1,56.5,175.7,56.1z
		 M174.3,60.8c-0.2,0.4-0.5,0.7-0.8,1c-0.4,0.2-0.8,0.3-1.2,0.3c-0.4,0-0.8-0.1-1.2-0.3c-0.4-0.2-0.7-0.5-0.9-0.8s-0.4-0.8-0.4-1.3
		v-0.6c0-0.5,0.1-1,0.3-1.3c0.2-0.4,0.5-0.6,0.9-0.8s0.8-0.3,1.2-0.3c0.5,0,0.9,0.1,1.2,0.3c0.4,0.2,0.6,0.5,0.8,1
		c0.2,0.4,0.3,0.9,0.3,1.4C174.6,59.9,174.5,60.4,174.3,60.8z"/>
	<path class="st0" d="M179,52.8c0,0.4,0.1,0.7,0.3,0.9c0.2,0.2,0.5,0.3,1,0.3s0.8-0.1,1-0.3c0.2-0.2,0.3-0.5,0.3-0.9
		c0-0.3-0.1-0.6-0.3-0.9s-0.5-0.3-1-0.3s-0.8,0.1-1,0.3C179.1,52.2,179,52.5,179,52.8z"/>
	<polygon class="st0" points="178.3,55.1 178.3,56.7 179.5,56.7 179.5,63.7 181.7,63.7 181.7,56.7 181.7,55.1 179.5,55.1 	"/>
	<path class="st0" d="M187.2,52.7h-2.1v2.4h-1.4v1.6h1.4v3.8c0,0.8,0.1,1.5,0.4,2s0.6,0.8,1.1,1c0.5,0.2,1.2,0.3,2,0.3h1.2v-1.9
		h-1.4c-0.4,0-0.8-0.1-1-0.3c-0.2-0.2-0.3-0.6-0.3-1l0-3.9h2.7v-1.6h-2.7L187.2,52.7z"/>
	<path class="st0" d="M198.1,55.4c-0.6-0.4-1.4-0.6-2.3-0.6c-0.7,0-1.3,0.1-1.9,0.4s-1,0.6-1.4,1s-0.6,0.9-0.8,1.4
		c-0.2,0.5-0.3,1.1-0.3,1.7v0.3c0,0.6,0.1,1.1,0.3,1.6c0.2,0.5,0.5,1,0.8,1.4c0.4,0.4,0.8,0.8,1.4,1c0.6,0.3,1.2,0.4,1.9,0.4
		c0.7,0,1.3-0.1,1.9-0.4c0.6-0.2,1-0.6,1.4-1c0.4-0.4,0.6-1,0.7-1.6h-2.1c-0.1,0.3-0.3,0.6-0.7,0.8c-0.3,0.2-0.8,0.3-1.3,0.3
		c-0.5,0-1-0.1-1.3-0.4c-0.3-0.2-0.6-0.6-0.8-1c-0.1-0.3-0.2-0.6-0.2-0.9h6.5v-0.8c0-0.8-0.2-1.5-0.5-2.1S198.8,55.8,198.1,55.4z
		 M194.6,57c0.3-0.2,0.8-0.3,1.2-0.3c0.5,0,0.9,0.1,1.2,0.3c0.3,0.2,0.6,0.5,0.7,0.9c0.1,0.2,0.2,0.5,0.2,0.7h-4.3
		c0-0.2,0.1-0.5,0.2-0.7C194,57.5,194.2,57.2,194.6,57z"/>
</g>
</svg>
