<?xml version="1.0" encoding="UTF-8"?>
<svg id="Capa_2" data-name="Capa 2" xmlns="http://www.w3.org/2000/svg" viewBox="0 0 2180.32 417.32">
  <defs>
    <style>
      .cls-1, .cls-2 {
        stroke-width: 0px;
      }

      .cls-2 {
        fill: #312783;
      }
    </style>
  </defs>
  <g id="Capa_2-2" data-name="Capa 2">
    <g>
      <path class="cls-1" d="m2122.51,365.81q-40-1.2-33.49-37.45c4.18-23.37,8.64-46.7,12.2-70.16,2-13.2,3.37-27.84-15.1-30.71-16.71-2.6-30.08,5.02-34.72,20.95-6.84,23.5-11.59,47.65-16.37,71.69-8.96,45.06-21.79,52.84-68.55,43.2-15.04-3.1-10.27-12.19-8.99-20.33,4.48-28.3,9.94-56.46,14.07-84.81,1.84-12.62,5.08-27.95-13.63-31.43-16.46-3.06-29.03,4.15-35.89,19.6-11.14,25.11-12.26,52.48-17.45,78.92-7.47,38-7.24,38.04-45.35,37.98-35.85-.06-35.54,0-29.13-35.14,8.07-44.29,16.25-88.57,22.97-133.07,2.61-17.24,10.82-26.08,27.36-22.52,16.18,3.48,41.14-13.43,46.98,18.71.82,4.5,9.69-2.31,14.13-5.24,21.43-14.14,44.13-21.39,70.18-15.45,8.43,1.92,17.35,4.71,21.38,11.21,11.08,17.89,21.55,16.15,36.1,3.94,7.89-6.62,18.69-11.91,28.84-13.44,52.17-7.89,92.47,1.74,79.98,73.2-5.36,30.64-13.58,60.92-16.9,91.75-3.12,28.93-19.31,32.49-38.62,28.6Z"/>
      <path class="cls-1" d="m707.88,192.02c10.44-9.32,33.72-27.17,66.73-29.75,11.25-.88,43.26-3.39,58.77,16.13,10.17,12.8,8.77,29.43,7.65,40.84-2.72,27.62-8.55,74.12-22.19,138.01-23.65.05-47.3.11-70.95.16,4.94-22.96,13.23-63.62,18.63-103.83,1.07-7.99,2.6-20.71-5.03-28.68-8.04-8.39-23.65-8.8-34.49-4.04-7.38,3.24-11.71,8.5-14.26,11.66-7.86,9.77-9.85,20.22-10.69,24.62-3.76,19.7-10.47,54.77-18.14,100.11-23.11-.22-46.22-.43-69.33-.65,9.07-64.15,18.14-128.29,27.21-192.44h69.65c-1.19,9.29-2.38,18.57-3.56,27.86Z"/>
      <path class="cls-1" d="m1691.91,367.79c-28.15-2.05-62.45-8.05-79.69-44.24-17.76-37.31-5.59-72.75,14.76-104.36,32.89-51.08,114.73-68.66,167.47-38.23,19.7,11.37,30.98,28.4,33.88,51.18,9.74,76.48-45.18,134.38-136.43,135.65Zm62.16-116.63c-.25-13.13-1.31-27.67-17.08-33.52-17.16-6.36-30.28,2.08-40.37,15.38-11.98,15.79-13.47,34.61-14,53.44-.38,13.64,1.43,26.39,17.61,30.95,15.18,4.28,27.61-.26,37.18-12.15,12.41-15.42,13.76-34.42,16.66-54.11Z"/>
      <path class="cls-1" d="m1071.05,279.16c-.39,1.89-3.31,17.35,7.45,29.81,10.1,11.7,24.43,11.67,27.54,11.66,19.93-.05,31.74-16,33.05-17.82,22.25.11,44.49.22,66.74.32-2.23,6.02-6.19,14.62-13.28,23.33-11.21,13.75-23.93,19.97-33.69,24.62-33.25,15.83-64.27,13.58-78.34,12.39-18.45-1.57-29.31-5.81-32.83-6.95-24.96-8.09-40.91-25.29-45.2-50.6-8.12-47.86,7.63-88.81,47.03-116.55,26.11-18.39,54.44-28.77,83.81-27.31,12.36.61,30.86,1.43,49.19,13.77,31.79,21.42,36.44,59.48,37.25,66.08,1.86,15.2-.21,27.89-2.19,36.06-48.84.4-97.67.79-146.51,1.19Zm79.05-36.61c.12-4.01.07-18.32-10.04-27.54-14.8-13.49-42.2-7.94-54.43,7.45-5.61,7.07-7.03,14.95-7.45,19.44,23.97.22,47.95.43,71.92.65Z"/>
      <path class="cls-1" d="m1518.21,237.13c.29-9.51-2.95-13.95-4.96-15.95-9.92-9.85-36.86-6.41-46.72,8.09-12.89,18.94-17.11,40.57-15.68,63.09.71,11.24,5.67,20.55,17.84,23.87,6.84,1.87,13.09,1.96,18.81.42,10.5-2.83,16.4-9.89,18.62-12.64,4.63-5.73,6.6-11.5,7.48-14.88h74.11c-.57,3.69-1.65,8.96-3.9,14.97-10.92,29.13-36.8,43.96-47.11,48.35-36.72,15.65-74.77,18.54-113.31,5.52-29.08-9.83-43.77-30.81-46.95-60.16-7.3-67.44,40.16-123.77,110.95-131.64,27.48-3.05,54.39-1.28,78.73,13.96,2.25,1.41,5.3,2.48,8.47,5.03,18.17,14.55,17.1,43.09,15.96,55.1-24.11-1.04-48.23-2.08-72.34-3.12Z"/>
      <path class="cls-1" d="m925.59,358.21c-24.54-1.53-44.33-2.77-54.69-15.58-7.29-9.03-6.82-19.98-2.33-52.78,2.96-21.65,7.2-49.35,13.28-81.64-8.42.11-16.85.22-25.27.32.53-5.26,1.17-10.66,1.94-16.2,1.37-9.8,3.02-19.09,4.86-27.86,10.15-.32,20.3-.65,30.45-.97.44-4.41,1.16-11.06,2.27-19.11,2.55-18.54,3.85-27.81,6.15-31.75,11.23-19.23,68.44-5.4,77.1-3.24-4,19.01-7.99,38.01-11.99,57.02l28.19.32v41.79c-13.17.11-26.35.22-39.52.32-17.87,48.45-18.65,86.95-2.59,96.54,3.43,2.05,9.19,3.71,19.11.97-1.8,16.67-3.59,33.34-5.39,50.01-9.71,1.47-24.15,2.91-41.58,1.82Z"/>
      <path class="cls-1" d="m1314.11,204.57c4.25-6.71,22.53-33.95,54.52-38.59,7.41-1.07,14.21-.74,20.07.2-4.37,22.88-8.74,45.75-13.11,68.63-6.92-1.56-21.14-3.69-36.46,2.4,0,0-10.74,4.27-20.41,13.77-16.99,16.68-29.77,55.82-32.07,105.97-21.14-.01-42.28-.02-63.42-.03,9.64-62.53,19.28-125.05,28.91-187.58,5.1.11,12.76.18,22.14-.13,5.41-.18,8.53-.39,12.32-.58,7.09-.34,17.29-.63,30.18-.26-.89,12.07-1.78,24.14-2.67,36.2Z"/>
      <path class="cls-1" d="m514.15,356.27c2.53-11.08,5.07-22.17,7.61-33.25,7.83-52.52,15.66-105.05,23.5-157.57,23.87-.32,47.73-.65,71.6-.97-11.01,64.36-22.03,128.72-33.04,193.09-23.22-.43-46.44-.86-69.65-1.3Z"/>
      <path class="cls-1" d="m552.05,138.24c2.48-18.14,4.97-36.28,7.45-54.43,23.54.22,47.08.43,70.63.65-2.64,17.83-5.27,35.66-7.91,53.5-23.39.09-46.78.19-70.17.28Z"/>
      <rect class="cls-2" x="119.92" y="238.12" width="158.6" height="158.6" rx="29.57" ry="29.57" transform="translate(-166.1 233.84) rotate(-45)"/>
      <path class="cls-1" d="m370.28,131.25l-103.1-103.1c-37.54-37.54-98.4-37.54-135.93,0L28.15,131.25c-37.54,37.54-37.54,98.4,0,135.94l42.02,42.02c1.71-12.36,7.25-24.29,16.73-33.77l70.33-70.33c11.22-11.22,26.13-17.39,41.99-17.39s30.77,6.18,41.99,17.39l70.33,70.33c9.48,9.48,15.01,21.41,16.73,33.77l42.02-42.02c37.54-37.54,37.54-98.4,0-135.94Z"/>
    </g>
  </g>
</svg>