<?xml version="1.0" encoding="UTF-8"?>
<svg id="Capa_2" data-name="Capa 2" xmlns="http://www.w3.org/2000/svg" viewBox="0 0 512.98 207.41">
  <defs>
    <style>
      .cls-1 {
        fill: #fff;
      }

      .cls-1, .cls-2 {
        fill-rule: evenodd;
        stroke-width: 0px;
      }

      .cls-2 {
        fill: #e30613;
      }
    </style>
  </defs>
  <g id="Livello_1" data-name="Livello 1">
    <g>
      <path class="cls-1" d="m496.61,84c-8.18-9.59-18.19-17.38-27.95-25.28-3.26-2.64-6.51-5.36-9.91-7.8-6.9-4.93-14.13-9.45-21.49-14.04-.45-.28-.78-.64-1.23-.89-3.39-1.9-6.64-3.84-9.91-5.68-11.48-6.46-23.82-11.43-37.09-16.15-4.35-1.55-9.04-2.67-13.7-4.01-4.63-1.33-9.42-2.43-14.26-3.46-4.8-1.02-9.63-2.21-14.59-3.12-5.09-.92-10.31-1.57-15.59-2.23-5.91-.74-11.84-.57-17.82-1.11-3.93-.36-9.46-.22-14.59-.22-9.21,0-16.63.06-24.5.89-1.94.21-4.36.45-6.46.67-3.8.4-7.6.57-11.25,1.11-8.03,1.19-15.64,3.01-23.17,4.68-7.58,1.68-15.03,3.38-22.39,5.57-10.35,3.42-20.26,7.61-29.85,11.92-4.72,2.12-9.22,4.76-13.81,7.13-4.61,2.38-9.17,4.82-13.37,7.57-4.18,2.75-8.31,5.66-12.36,8.58-4.09,2.95-8.23,5.76-12.14,8.8-7.34,5.7-14.29,12.07-20.71,18.49-.43.43-1.2.82-1,1.23h5.12c3.87-5.12,9.24-8.73,14.03-12.92,16.58-13.14,34.35-24.73,54.68-33.86,1.38-.62,2.66-1.41,4.01-2.01,11.1-4.89,22.64-9.04,35.08-12.25,6.25-1.61,12.53-3.27,19.16-4.46,8.96-1.6,18.52-2.97,28.4-3.79,6.78-.86,14.12-1.11,21.83-1.11,2.49,0,5.06-.21,7.35,0,4.15.38,8.24.09,12.25.44,4.21.37,9.1.39,13.48.89,2.28.26,5.06.72,7.46,1.11,6.93,1.13,13.49,2.3,19.93,3.79,8.64,1.99,16.96,4.01,24.95,6.57,8.07,2.58,15.63,5.38,22.94,8.58,10.84,4.74,21.28,10.34,31.18,16.15,10.06,5.9,19.1,12.37,27.84,19.49,5.79,4.73,11.56,9.44,16.82,14.7,5.27,5.27,10.58,10.49,15.37,16.26,2.56,3.08,5.19,6.09,7.46,9.47-3.28,6.03-7.69,11.53-12.58,16.48-2.39,2.41-4.95,4.7-7.35,7.13-2.45,2.48-4.81,4.96-7.46,7.13-2.65,2.17-5.19,4.45-7.8,6.68-2.62,2.24-5.4,4.32-8.13,6.46-5.48,4.29-11.11,8.44-17.15,12.03-6.06,3.6-12.18,7.12-18.49,10.58-6.26,3.43-12.83,6.52-19.49,9.69-6.65,3.17-13.89,5.35-21.05,8.02-7.25,2.7-15.1,4.17-22.83,6.35-12.09,2.42-23.95,5.09-37.76,5.79-8.82.75-17.61,1.11-26.84,1.11-5.7,0-10.29,0-15.48-.45-2.53-.22-5.52-.59-8.13-.78-4.74-.34-9.26-1.24-13.7-1.89-2.3-.34-4.66-.52-6.91-.89-14.18-2.38-27.23-6.22-39.87-10.58-6.29-2.17-12.52-4.24-18.38-6.8-8.96-3.9-17.34-7.94-25.5-12.36-4.13-2.24-7.84-4.7-11.81-7.02-4.06-2.37-7.88-4.91-11.47-7.57-2.39-1.78-4.73-3.65-7.13-5.46-2.35-1.76-4.59-3.87-6.9-5.79-3.1-2.58-7.12-5.71-10.02-8.91-.86-.94-2.49-3.06-3.12-3.23-1.38-.38-3.21.29-4.45,0,.78,1.48,2.28,2.33,3.34,3.56,3.35,3.88,7.14,7.16,10.91,10.58,4.98,4.52,10.34,8.81,15.81,12.81,8.27,6.03,17.23,11.44,26.28,16.7,3.06,1.78,6.16,3.46,9.36,5.01,19.23,9.31,39.83,17.61,63.26,22.61,3.91.84,7.9,1.78,11.92,2.45,10.04,1.67,20.64,2.79,31.29,3.79,5.5.52,10.78.45,16.71.45,12.35,0,23.11-.68,34.08-1.78,7.87-1.03,15.51-2.25,22.94-3.79,7.43-1.54,14.75-3.01,21.72-5.01,7.08-2.03,14.05-3.72,20.6-6.12,13.07-4.8,25.09-10.75,36.42-17.15,5.73-3.24,11.15-6.77,16.59-10.24,5.46-3.49,10.84-6.95,15.93-10.8,5.1-3.86,9.99-7.91,14.92-11.92,3.06-2.91,6.38-5.49,9.36-8.46,8.95-8.95,18.03-17.74,24.5-29.07-5.02-6.8-10.97-12.72-16.37-19.04Zm-72.28-13.7c-9.45-7.95-19.42-16.02-30.07-22.72-7.66-4.82-15.76-9.66-24.28-13.48-6.79-3.04-13.73-6.03-21.16-9.02-7.16-2.88-15.08-4.75-23.28-6.9-5.88-1.55-12.6-2.87-19.04-3.56-2.26-.25-4.52-.8-6.68-.89-5.24-.23-8.88-.33-14.37-.33-4.8,0-8.04.02-12.25.22-1.4.07-2.83.1-4.12.22-5.51.51-10.84.46-16.26,1.11-1.51.18-3.49.32-4.57.44-6.33.74-12.29,1.66-18.04,2.79-5.75,1.12-11.17,2.83-16.48,4.45-16.12,4.93-30.72,11.12-43.88,18.82-13.31,7.79-25.26,16.25-36.98,25.84-3.73,3.03-7.67,6.58-11.25,9.69-.48.42-1.19,1.12-1.11,1.45h5.23c14.87-12.91,30.47-25.19,48.45-34.97,4.46-2.43,9.07-4.82,13.92-6.91,4.86-2.09,9.81-4.29,15.04-5.9,10.43-3.23,21.39-6.87,33.63-8.13,12.21-2.29,25.28-2.45,39.65-2.45,7.29,0,14.78-.24,21.05.45,1.9.21,3.74.21,5.57.44,3.89.49,7.73,1.26,11.47,2.01,3.78.76,7.53,1.52,11.14,2.34,7.37,1.67,14.18,4.17,20.6,6.35,19.08,7.88,36.86,16.82,52.35,28.62,7.56,5.76,14.91,11.79,21.83,18.71,3.13,3.13,6.57,6.64,9.91,10.36,2.25,2.51,4.81,5.23,6.91,8.24.53.76,2.12,2.77,2.12,3.01,0-.02-.69,1.05-1,1.56-2.33,3.82-4.92,7.57-7.46,10.69-3.23,3.98-6.85,7.52-10.02,10.69-3.48,3.48-6.92,6.98-10.69,10.02-5.87,4.75-11.27,9.49-17.26,13.92-1.97,1.45-3.96,3.11-6.01,4.34-13,7.83-26.59,14.99-41.54,20.83-7,2.68-14.09,4.65-21.38,6.35-7.31,1.71-14.74,3.76-22.94,4.79-4.16.52-7.81.35-12.14.56-5.89.28-11.56.33-17.6.33-6.63,0-12.93.11-18.93-.45-15.42-1.41-29.22-3.36-41.88-7.46-5.55-1.8-11.15-3.16-16.26-5.35-2.55-1.09-5.02-2.22-7.57-3.23-5.15-2.02-9.79-4.58-14.37-7.13-2.31-1.29-4.64-2.54-6.9-3.9-12.5-7.49-23.79-15.61-34.19-25.17-.86-.79-2.36-2.3-3.01-2.45-1.67-.4-3.83.3-5.35,0,.77,1.05,1.84,1.8,2.78,2.67,2.88,2.65,5.83,5.22,8.8,7.68,8.04,6.67,16.73,12.74,25.84,18.27,2.27,1.38,4.58,2.75,6.79,4.23,2.2,1.48,4.58,2.91,6.91,4.12,4.77,2.49,9.92,4.63,15.15,6.9,5.09,2.21,10.22,4.62,15.59,6.46,10.84,3.72,22.86,6.95,35.3,8.8,2.65.39,5.79.55,8.02.89,3.83.59,8.05.11,12.03.67,5.56.78,11.4.34,17.26.89,4.01.38,8.84.18,13.36.22,2.27-.51,5.12-.14,7.8-.45,9.17-1.06,17.92-2.44,26.28-4.46,16.45-3.96,31.11-10.17,45.11-16.48,1.7-.77,3.32-1.83,5.01-2.67,3.5-1.73,6.83-3.46,10.02-5.35,14.55-8.57,27.49-18.68,39.87-29.51,10.91-9.55,22.17-19.2,29.63-31.96-8.57-11.06-19.05-20.91-30.07-30.18Zm37.09-38.76c-.19,3.24,1.26,6.18,2.9,7.8,5.74,5.68,16.16,2.01,16.93-5.9.38-3.89-1.34-6.96-2.89-8.46-1.76-1.72-4.83-3-8.46-2.56-4.63.56-8.17,4.21-8.47,9.13Zm-145.45,115.27c6.55,4.81,14.25,8.89,23.83,10.69,6.58,1.23,14.41,1.06,20.83,0,14.85-2.46,26.32-10.47,34.19-20.16,7.93-9.77,13.44-22.77,12.36-40.99-.36-1.92-.6-4.19-1-6.12-1.15-5.48-2.77-9.63-5.01-14.03-4.25-8.34-10.21-15.5-17.6-20.6-9.4-6.51-21.15-11.58-37.53-10.58-3.59.45-7.07,1.02-10.36,1.78-17.8,5.37-30.04,16.29-37.2,32.3,1.13.24,1.86.89,3.01,1.11,3.19-7.52,8.16-13.64,13.92-18.82,5.53-4.97,12.97-9.37,21.27-11.47,6.78-1.72,15.47-2.18,22.94-1,8.44,1.32,16.02,4.86,21.83,9.02,11.77,8.42,20.67,21.31,22.39,39.32.65,4.94.18,10.03-.56,14.37-.27,1.58-.8,3.15-1.23,4.68-2.53,9.12-7.12,16.69-13.03,22.61-7.91,7.91-17.92,13.91-31.52,15.93-1.31.19-2.67.04-4.01.22-1.44.2-3.51.37-5.12.22-1.43-.13-3.42-.2-5.01-.44-9.83-1.51-17.99-5.05-24.39-9.8-6.49-4.82-11.92-10.92-15.82-18.49-1,.49-2.09.88-2.89,1.56,3.97,7.34,9.12,13.88,15.7,18.71ZM59.36,125.1h6.46v-31.07c10.38,10.22,20.64,22.09,31.07,32.52.23.23.5.95,1,.67-.07-15.18.15-30.66-.11-45.66-1.79-.26-4.04-.04-6.01-.11-.26,10.06-.04,20.6-.11,30.85-10.91-10.96-21.37-22.36-32.19-33.41-.26,15.18-.04,30.85-.11,46.22Zm276.54,0h6.01v-31.3c8.16,8.15,16.02,17.13,24.17,25.28,2.37,2.37,4.69,5.09,6.9,7.46.22.24.59.72,1,.67v-45.77h-6.01v30.85c-2.97-2.45-5.31-5.53-8.02-8.24-8.2-8.2-15.87-16.82-23.95-25.06,0-.07-.02-.13-.11-.11v46.22Zm-201.92,0h6.46c1.78-3.46,3.17-7.3,5.01-10.69h19.27c1.41,3.72,3.23,7.02,4.68,10.69,2.19-.07,4.68.15,6.68-.11-7.02-15.26-13.95-30.6-21.05-45.77-7.03,15.28-14.05,30.57-21.05,45.88Zm74.06,0h6.79c1.56-3.63,3.11-7.29,4.9-10.69h19.16c1.71,3.53,3.09,7.38,5.01,10.69h6.35c-7.07-15.28-13.95-30.75-21.16-45.88-6.97,15.34-13.99,30.63-21.05,45.88ZM32.19,81.77v43.32h23.95v-5.68c-5.87-.08-12.03.15-17.71-.11.07-5.01-.15-10.32.11-15.15,5.68-.08,11.66.15,17.15-.11v-5.57c-5.5-.34-11.77.11-17.26-.22v-11.03c5.87-.08,12.03.15,17.71-.11v-5.57c-7.65-.26-15.78-.04-23.61-.11-.16.06-.27.17-.33.33Zm70.16,0v43.32c19.84,1.43,33.21-3.95,33.64-21.72.21-8.96-3.83-14.62-9.47-18.15-5.87-3.68-14.28-4.15-23.94-3.79-.14.04-.23.14-.22.33Zm89.99,0v43.32h6.01c.07-6.94-.15-14.18.11-20.94h14.81v-5.79c-4.94-.08-10.17.15-14.92-.11.07-3.64-.15-7.58.11-11.03h15.26v-5.79h-21.27c-.13.02-.12.17-.11.33Zm82.97,11.14c-1.05-7-5.32-10.71-12.7-11.36-3.48-.3-7.49,0-11.58-.11-.26,14.33-.04,29.14-.11,43.66h6.24c.08-5.94-.15-12.18.11-17.93h1.56c4.17,5.96,8.36,11.91,12.47,17.93h7.46c-4.08-6.13-9.07-12.32-13.25-18.71,6.19-1.58,9.86-5.66,9.8-13.48Zm4.23,32.19c4.47-.29,8.91.4,13.03,0,4.11-.4,7.35-2.14,9.69-4.12.92-1.37,1.98-2.53,2.45-4.12,2.02-6.91-1.75-13.74-7.46-15.15,3.38-1.9,4.94-7.54,3.45-12.59-.59-1.49-1.46-2.7-2.34-3.9-3.81-3.69-11-3.99-18.71-3.79-.26,14.33-.04,29.14-.11,43.66Zm28.96-43.32v43.32h23.95v-5.68c-5.9-.08-12.1.15-17.82-.11v-15.15h17.26v-5.79c-5.72-.08-11.73.15-17.26-.11.07-3.64-.15-7.58.11-11.03h17.71v-5.79h-23.83c-.13.02-.12.17-.11.33Z"/>
      <path class="cls-2" d="m512.98,103.05c-6.47,11.33-15.55,20.12-24.5,29.07-2.98,2.98-6.3,5.55-9.36,8.46-4.93,4-9.82,8.05-14.92,11.92-5.09,3.85-10.47,7.32-15.93,10.8-5.44,3.47-10.86,7-16.59,10.24-11.33,6.41-23.35,12.36-36.42,17.15-6.55,2.4-13.53,4.09-20.6,6.12-6.96,2-14.29,3.48-21.72,5.01-7.44,1.54-15.07,2.76-22.94,3.79-10.97,1.11-21.73,1.78-34.08,1.78-5.93,0-11.2.07-16.71-.45-10.65-1-21.26-2.12-31.29-3.79-4.02-.67-8-1.61-11.92-2.45-23.43-5-44.03-13.3-63.26-22.61-3.2-1.55-6.3-3.24-9.36-5.01-9.06-5.26-18.01-10.67-26.28-16.7-5.48-4-10.84-8.29-15.81-12.81-3.78-3.42-7.56-6.7-10.91-10.58-1.06-1.23-2.56-2.09-3.34-3.56,1.24.29,3.07-.38,4.45,0,.62.17,2.26,2.29,3.12,3.23,2.9,3.2,6.93,6.33,10.02,8.91,2.31,1.92,4.56,4.03,6.9,5.79,2.4,1.8,4.74,3.68,7.13,5.46,3.59,2.67,7.41,5.21,11.47,7.57,3.97,2.31,7.68,4.78,11.81,7.02,8.16,4.42,16.55,8.46,25.5,12.36,5.86,2.55,12.09,4.62,18.38,6.8,12.64,4.36,25.69,8.2,39.87,10.58,2.25.37,4.61.55,6.91.89,4.44.65,8.96,1.55,13.7,1.89,2.61.19,5.6.56,8.13.78,5.19.45,9.79.45,15.48.45,9.23,0,18.02-.37,26.84-1.11,13.81-.71,25.66-3.37,37.76-5.79,7.74-2.18,15.58-3.65,22.83-6.35,7.16-2.67,14.39-4.85,21.05-8.02,6.67-3.17,13.23-6.25,19.49-9.69,6.31-3.46,12.43-6.98,18.49-10.58,6.04-3.59,11.67-7.74,17.15-12.03,2.73-2.14,5.51-4.22,8.13-6.46,2.61-2.23,5.15-4.51,7.8-6.68,2.65-2.17,5.01-4.65,7.46-7.13,2.41-2.43,4.96-4.72,7.35-7.13,4.9-4.95,9.31-10.45,12.58-16.48-2.27-3.37-4.9-6.38-7.46-9.47-4.78-5.77-10.1-10.99-15.37-16.26-5.26-5.26-11.02-9.97-16.82-14.7-8.74-7.13-17.78-13.59-27.84-19.49-9.9-5.8-20.35-11.41-31.18-16.15-7.31-3.2-14.88-6-22.94-8.58-7.99-2.56-16.31-4.58-24.95-6.57-6.45-1.49-13-2.66-19.93-3.79-2.4-.39-5.18-.85-7.46-1.11-4.37-.5-9.26-.52-13.48-.89-4.01-.35-8.1-.06-12.25-.44-2.29-.21-4.86,0-7.35,0-7.71,0-15.05.26-21.83,1.11-9.88.82-19.44,2.19-28.4,3.79-6.62,1.18-12.91,2.84-19.16,4.46-12.44,3.21-23.98,7.36-35.08,12.25-1.35.6-2.63,1.38-4.01,2.01-20.33,9.13-38.1,20.71-54.68,33.86-4.79,4.19-10.17,7.8-14.03,12.92h-5.12c-.2-.4.57-.8,1-1.23,6.42-6.42,13.38-12.79,20.71-18.49,3.91-3.04,8.05-5.85,12.14-8.8,4.05-2.92,8.18-5.83,12.36-8.58,4.2-2.76,8.76-5.19,13.37-7.57,4.59-2.37,9.09-5,13.81-7.13,9.59-4.31,19.5-8.5,29.85-11.92,7.35-2.19,14.81-3.89,22.39-5.57,7.53-1.66,15.14-3.48,23.17-4.68,3.65-.54,7.45-.71,11.25-1.11,2.1-.22,4.52-.46,6.46-.67,7.88-.83,15.3-.89,24.5-.89,5.13,0,10.66-.14,14.59.22,5.98.55,11.91.38,17.82,1.11,5.28.66,10.51,1.3,15.59,2.23,4.96.91,9.79,2.1,14.59,3.12,4.83,1.02,9.62,2.13,14.26,3.46,4.66,1.34,9.35,2.46,13.7,4.01,13.27,4.73,25.61,9.7,37.09,16.15,3.28,1.84,6.52,3.78,9.91,5.68.44.25.77.61,1.23.89,7.36,4.58,14.6,9.1,21.49,14.04,3.4,2.43,6.65,5.15,9.91,7.8,9.76,7.9,19.77,15.69,27.95,25.28,5.4,6.33,11.35,12.25,16.37,19.04Z"/>
      <path class="cls-2" d="m454.4,100.48c-7.45,12.77-18.71,22.42-29.63,31.96-12.38,10.83-25.32,20.95-39.87,29.51-3.19,1.88-6.53,3.62-10.02,5.35-1.7.84-3.31,1.91-5.01,2.67-14,6.31-28.66,12.53-45.11,16.48-8.37,2.01-17.11,3.4-26.28,4.46-2.67.31-5.52-.07-7.8.45-4.53-.04-9.35.15-13.36-.22-5.86-.55-11.71-.11-17.26-.89-3.98-.56-8.19-.08-12.03-.67-2.23-.34-5.37-.5-8.02-.89-12.45-1.85-24.47-5.08-35.3-8.8-5.37-1.84-10.5-4.25-15.59-6.46-5.23-2.27-10.37-4.41-15.15-6.9-2.33-1.22-4.7-2.65-6.91-4.12-2.21-1.48-4.52-2.86-6.79-4.23-9.1-5.53-17.8-11.6-25.84-18.27-2.97-2.46-5.92-5.04-8.8-7.68-.94-.87-2.02-1.62-2.78-2.67,1.51.3,3.68-.4,5.35,0,.65.15,2.14,1.66,3.01,2.45,10.4,9.56,21.69,17.68,34.19,25.17,2.27,1.36,4.59,2.61,6.9,3.9,4.58,2.54,9.22,5.11,14.37,7.13,2.55,1,5.02,2.14,7.57,3.23,5.11,2.19,10.71,3.55,16.26,5.35,12.65,4.11,26.45,6.05,41.88,7.46,6,.55,12.3.45,18.93.45,6.04,0,11.7-.05,17.6-.33,4.33-.21,7.98-.04,12.14-.56,8.2-1.02,15.63-3.08,22.94-4.79,7.29-1.7,14.38-3.67,21.38-6.35,14.95-5.84,28.55-12.99,41.54-20.83,2.05-1.24,4.05-2.89,6.01-4.34,6-4.43,11.39-9.18,17.26-13.92,3.77-3.05,7.21-6.55,10.69-10.02,3.17-3.17,6.79-6.71,10.02-10.69,2.54-3.12,5.14-6.87,7.46-10.69.31-.51,1-1.58,1-1.56,0-.24-1.59-2.25-2.12-3.01-2.09-3.01-4.65-5.73-6.91-8.24-3.34-3.72-6.78-7.22-9.91-10.36-6.92-6.92-14.27-12.95-21.83-18.71-15.48-11.8-33.27-20.74-52.35-28.62-6.42-2.17-13.23-4.67-20.6-6.35-3.61-.82-7.36-1.58-11.14-2.34-3.74-.75-7.58-1.51-11.47-2.01-1.83-.23-3.67-.24-5.57-.44-6.27-.69-13.76-.45-21.05-.45-14.37,0-27.44.16-39.65,2.45-12.24,1.26-23.21,4.9-33.63,8.13-5.23,1.62-10.18,3.81-15.04,5.9-4.86,2.09-9.46,4.48-13.92,6.91-17.98,9.78-33.58,22.06-48.45,34.97h-5.23c-.08-.33.63-1.03,1.11-1.45,3.58-3.11,7.51-6.66,11.25-9.69,11.72-9.59,23.67-18.05,36.98-25.84,13.16-7.7,27.76-13.89,43.88-18.82,5.32-1.63,10.73-3.33,16.48-4.45,5.75-1.12,11.71-2.04,18.04-2.79,1.08-.12,3.06-.27,4.57-.44,5.42-.66,10.75-.6,16.26-1.11,1.29-.12,2.72-.16,4.12-.22,4.21-.2,7.45-.22,12.25-.22,5.48,0,9.13.1,14.37.33,2.16.1,4.42.65,6.68.89,6.45.69,13.16,2.02,19.04,3.56,8.2,2.15,16.12,4.02,23.28,6.9,7.43,2.99,14.37,5.98,21.16,9.02,8.52,3.81,16.62,8.65,24.28,13.48,10.65,6.71,20.62,14.77,30.07,22.72,11.02,9.27,21.5,19.12,30.07,30.18Z"/>
      <path class="cls-2" d="m469.88,22.41c3.64-.44,6.7.84,8.46,2.56,1.55,1.51,3.27,4.58,2.89,8.46-.77,7.92-11.19,11.58-16.93,5.9-1.64-1.62-3.09-4.56-2.9-7.8.3-4.92,3.83-8.57,8.47-9.13Zm-4.34,2.78c-1.74,1.43-3.28,3.91-3.23,7.13.04,2.71,1.15,4.78,2.45,6.12,5.33,5.54,16.18,2,15.59-6.91-.34-5.16-4.39-8.9-10.13-8.24-2,.23-3.58,1-4.68,1.89Z"/>
      <path class="cls-1" d="m470.22,23.3c5.75-.66,9.79,3.08,10.13,8.24.59,8.91-10.26,12.45-15.59,6.91-1.3-1.35-2.41-3.41-2.45-6.12-.05-3.22,1.49-5.7,3.23-7.13,1.1-.89,2.68-1.66,4.68-1.89Zm5.79,5.79c.01-3.67-4.42-3.2-8.69-3.12v12.36h1.89v-5.68c4.41-.96,3.89,3.01,4.68,5.68.71-.07,1.71.15,2.23-.11-1.21-1.8-.43-5.58-2.78-6.24,1.73-.37,2.67-1.29,2.67-2.89Z"/>
      <path class="cls-2" d="m473.34,31.99c2.35.65,1.57,4.44,2.78,6.24-.52.26-1.52.04-2.23.11-.79-2.67-.27-6.64-4.68-5.68v5.68h-1.89v-12.36c4.26-.08,8.7-.55,8.69,3.12,0,1.61-.94,2.53-2.67,2.89Zm.78-2.78c0-2.07-2.44-1.91-4.9-1.9v3.79c2.53.1,4.91.18,4.9-1.89Z"/>
      <path class="cls-1" d="m469.22,31.1v-3.79c2.46-.01,4.89-.17,4.9,1.9,0,2.07-2.37,1.99-4.9,1.89Z"/>
      <path class="cls-2" d="m300.26,128.1c.8-.68,1.9-1.07,2.89-1.56,3.89,7.56,9.33,13.67,15.82,18.49,6.39,4.76,14.56,8.29,24.39,9.8,1.59.24,3.58.31,5.01.44,1.61.15,3.68-.02,5.12-.22,1.34-.19,2.7-.03,4.01-.22,13.6-2.02,23.61-8.02,31.52-15.93,5.92-5.91,10.51-13.49,13.03-22.61.42-1.53.96-3.1,1.23-4.68.74-4.34,1.2-9.43.56-14.37-1.72-18.01-10.62-30.89-22.39-39.32-5.81-4.16-13.39-7.7-21.83-9.02-7.48-1.17-16.16-.72-22.94,1-8.31,2.1-15.74,6.5-21.27,11.47-5.76,5.18-10.73,11.3-13.92,18.82-1.15-.22-1.87-.87-3.01-1.11,7.16-16.01,19.4-26.93,37.2-32.3,3.28-.76,6.77-1.33,10.36-1.78,16.38-1,28.13,4.07,37.53,10.58,7.38,5.11,13.35,12.26,17.6,20.6,2.24,4.4,3.86,8.55,5.01,14.03.4,1.93.64,4.2,1,6.12,1.08,18.21-4.43,31.22-12.36,40.99-7.87,9.69-19.34,17.7-34.19,20.16-6.42,1.06-14.25,1.23-20.83,0-9.59-1.8-17.28-5.88-23.83-10.69-6.58-4.83-11.73-11.37-15.7-18.71Z"/>
      <path class="cls-2" d="m59.47,78.88c10.82,11.04,21.28,22.45,32.19,33.41.07-10.24-.15-20.79.11-30.85,1.97.07,4.23-.15,6.01.11.26,15,.04,30.48.11,45.66-.51.28-.77-.44-1-.67-10.43-10.43-20.69-22.3-31.07-32.52v31.07h-6.46c.07-15.37-.15-31.04.11-46.22Z"/>
      <path class="cls-2" d="m335.9,78.88c.09-.02.1.04.11.11,8.08,8.24,15.75,16.86,23.95,25.06,2.71,2.71,5.05,5.79,8.02,8.24v-30.85h6.01v45.77c-.41.05-.78-.43-1-.67-2.21-2.37-4.54-5.09-6.9-7.46-8.15-8.15-16.01-17.13-24.17-25.28v31.3h-6.01v-46.22Z"/>
      <path class="cls-2" d="m155.03,79.21c7.1,15.17,14.04,30.51,21.05,45.77-2.01.26-4.49.04-6.68.11-1.45-3.68-3.27-6.98-4.68-10.69h-19.27c-1.84,3.4-3.23,7.24-5.01,10.69h-6.46c7-15.31,14.02-30.61,21.05-45.88Zm-7.02,29.4c4.64-.07,9.58.15,14.03-.11-2.49-5.05-4.57-10.5-7.02-15.59-2.35,5.22-4.73,10.41-7.02,15.7Z"/>
      <path class="cls-2" d="m229.1,79.21c7.21,15.14,14.09,30.61,21.16,45.88h-6.35c-1.93-3.31-3.3-7.16-5.01-10.69h-19.16c-1.79,3.4-3.34,7.06-4.9,10.69h-6.79c7.06-15.25,14.08-30.55,21.05-45.88Zm-6.79,29.4c4.6-.07,9.5.15,13.92-.11-2.42-5.15-4.58-10.56-7.13-15.59-2.19,5.31-4.64,10.36-6.79,15.7Z"/>
      <path class="cls-2" d="m0,125.1v-43.55c1.82-.18,4.41-.18,6.24,0v17.49l1-.78s8.15-8.15,12.36-12.37c.89-.89,4.57-4.45,4.57-4.45h7.69s-13.23,13.06-19.49,19.82c6.43,7.98,13.45,15.95,19.6,23.84h-8.02c-4.61-5.75-14.14-17.37-14.14-17.37l-2.12-2.23-1.34,1.23s-.04,12.29-.11,18.38H0Z"/>
      <path class="cls-2" d="m32.52,81.44c7.83.07,23.61.11,23.61.11v5.57s-11.84.04-17.71.11v11.03l17.26.22v5.57l-17.15.11-.11,15.15s11.84.04,17.71.11v5.68h-23.95v-43.32c.06-.16.17-.27.33-.33Z"/>
      <path class="cls-2" d="m102.58,81.44c9.66-.36,18.08.11,23.94,3.79,5.64,3.53,9.68,9.19,9.47,18.15-.43,17.77-13.79,23.15-33.64,21.72v-43.32c0-.19.08-.29.22-.33Zm6.01,6.12v31.86c8.53.21,15.33-1.75,18.82-6.79,3.27-4.73,3.16-14.29-.22-18.94-3.48-4.8-9.83-6.63-18.49-6.46-.13.02-.12.18-.11.33Z"/>
      <path class="cls-2" d="m192.45,81.44h21.27v5.79h-15.26c-.26,3.45-.04,7.39-.11,11.03,4.75.26,9.99.04,14.92.11v5.79h-14.81c-.26,6.76-.04,14-.11,20.94h-6.01v-43.32c-.01-.16-.02-.32.11-.33Z"/>
      <path class="cls-2" d="m265.51,106.39c4.19,6.39,9.18,12.58,13.25,18.71h-7.46c-4.11-6.02-8.3-11.97-12.47-17.93h-1.56c-.26,5.76-.04,11.99-.11,17.93h-6.24c.07-14.52-.15-29.33.11-43.66,4.09.11,8.11-.19,11.58.11,7.38.65,11.64,4.36,12.7,11.36.06,7.82-3.61,11.9-9.8,13.48Zm2.67-7.46c1.84-2.28,1.95-6.61,0-9.02-2.03-2.51-6.13-2.83-10.91-2.79-.26,4.68-.04,9.84-.11,14.7,4.48.04,8.95-.32,11.03-2.89Z"/>
      <path class="cls-2" d="m279.66,81.44c7.71-.21,14.9.1,18.71,3.79.88,1.2,1.75,2.41,2.34,3.9,1.49,5.05-.07,10.69-3.45,12.59,5.71,1.4,9.49,8.24,7.46,15.15-.46,1.59-1.53,2.75-2.45,4.12-2.34,1.98-5.58,3.72-9.69,4.12-4.12.4-8.56-.29-13.03,0,.07-14.52-.15-29.33.11-43.66Zm13.7,17.71c2.46-1.74,2.88-6.51,1.23-9.58-.54-.36-.99-.79-1.34-1.34-1.9-.96-4.45-1.27-7.46-1.11-.26,4.23-.04,8.95-.11,13.37,3.15-.08,5.75.03,7.68-1.34Zm-7.68,20.49c6.34.2,12.08-.29,13.25-5.01,1.9-7.61-5.4-9.67-13.14-9.02-.26,4.45-.04,9.39-.11,14.03Z"/>
      <path class="cls-2" d="m308.62,81.44h23.83v5.79h-17.71c-.26,3.45-.04,7.39-.11,11.03,5.53.26,11.55.04,17.26.11v5.79h-17.26v15.15c5.72.26,11.92.04,17.82.11v5.68h-23.95v-43.32c0-.16-.02-.32.11-.33Z"/>
      <path class="cls-1" d="m257.16,101.82c.08-4.86-.15-10.02.11-14.7,4.78-.04,8.89.27,10.91,2.79,1.95,2.42,1.84,6.74,0,9.02-2.07,2.57-6.55,2.93-11.03,2.89Z"/>
      <path class="cls-1" d="m285.67,100.48c.07-4.42-.15-9.13.11-13.37,3.01-.15,5.56.15,7.46,1.11.35.54.8.98,1.34,1.34,1.65,3.06,1.24,7.83-1.23,9.58-1.93,1.37-4.54,1.26-7.68,1.34Z"/>
      <path class="cls-1" d="m108.7,87.23c8.66-.17,15,1.66,18.49,6.46,3.38,4.65,3.49,14.21.22,18.94-3.5,5.04-10.29,7.01-18.82,6.79v-31.86c0-.16-.02-.31.11-.33Z"/>
      <path class="cls-1" d="m155.03,92.91c2.45,5.09,4.53,10.54,7.02,15.59-4.46.26-9.39.04-14.03.11,2.28-5.29,4.66-10.48,7.02-15.7Z"/>
      <path class="cls-1" d="m229.1,92.91c2.54,5.03,4.7,10.44,7.13,15.59-4.42.26-9.32.04-13.92.11,2.15-5.35,4.6-10.39,6.79-15.7Z"/>
      <path class="cls-1" d="m285.78,105.61c7.75-.65,15.04,1.41,13.14,9.02-1.18,4.72-6.92,5.21-13.25,5.01.07-4.64-.15-9.58.11-14.03Z"/>
    </g>
  </g>
</svg>