<?xml version="1.0" encoding="UTF-8"?>
<svg id="Capa_2" data-name="Capa 2" xmlns="http://www.w3.org/2000/svg" xmlns:xlink="http://www.w3.org/1999/xlink" viewBox="0 0 2180.32 650.38">
  <defs>
    <style>
      .cls-1 {
        fill: none;
      }

      .cls-1, .cls-2, .cls-3, .cls-4 {
        stroke-width: 0px;
      }

      .cls-2 {
        fill: #1c4261;
      }

      .cls-5 {
        clip-path: url(#clippath);
      }

      .cls-3 {
        fill: #0f8546;
      }

      .cls-4 {
        fill: #991719;
      }
    </style>
    <clipPath id="clippath">
      <circle class="cls-1" cx="1452.61" cy="122.91" r="120.72"/>
    </clipPath>
  </defs>
  <g id="Capa_2-2" data-name="Capa 2">
    <g>
      <path class="cls-2" d="m1447.43,291.41c237.12,0,474.24,0,711.36,0,4,0,8.01-.18,11.98.15,6.53.53,8.72,2.76,9.14,9.45.37,5.97.36,11.97.37,17.96.04,31.29.08,62.57.01,93.86-.03,11.66-1.43,13.39-13.26,13.59-23.31.39-46.62.1-69.93.44-20.24.29-16.73-1.55-16.79,17.25-.2,62.57-.06,125.14-.16,187.72-.03,17.18-1.09,18.28-18.07,18.37-34.3.18-68.6.23-102.91.17-16.89-.03-16.85-.2-16.87-16.83-.08-62.57.03-125.15-.4-187.72-.14-20.9,2.01-17.52-18.46-18.14-19.63-.6-39.29-.25-58.94-.11-9.08.06-9.29.29-9.32,9.49-.19,48.93-.27,97.85-.39,146.78-.04,17.64-.02,35.28-.12,52.92-.07,11.66-1.59,13.36-13.32,13.42-33.63.17-67.27.14-100.91.19-.33,0-.67,0-1-.01-13.31-.43-14.24-1.21-14.29-14.34-.14-36.28-.09-72.56-.2-108.84-.08-28.29-.12-56.58-.49-84.87-.19-14.33-.5-14.57-14.96-14.73-23.98-.26-47.95-.23-71.93-.17-9.19.03-9.38.23-9.39,9.42-.04,57.58.01,115.16.02,172.74,0,8.65,0,17.31-.08,25.96-.13,13.38-1.36,14.59-15.15,14.76-7.99.1-15.99.09-23.98.09-168.85,0-337.69-.01-506.54-.03-6.33,0-12.65-.07-18.98-.15-3.7-.04-7.06-.45-9.83-3.7-2.71-3.19-1.82-6.06-1.53-9.69.68-8.59.06-17.29.03-25.94-.08-20.97,0-41.94-.23-62.9-.14-12.21-.91-13.05-13.17-13.08-52.95-.14-105.9-.09-158.85-.1-7.33,0-14.65.01-21.98.09-12.19.12-12.28.14-12.34,11.92-.14,29.29-.19,58.58-.28,87.87,0,2.33.05,4.67-.14,6.99-.41,4.99-3.07,7.95-8.17,8.38-1.99.17-3.99.13-5.99.13-33.97-.02-67.94-.03-101.91-.07-2.33,0-4.66-.07-6.98-.26-3.85-.32-6.05-2.76-6.79-6.27-.54-2.57-.49-5.29-.49-7.94-.04-110.17-.07-220.34-.06-330.5,0-12.11,1.49-13.32,15.31-13.33,144.87-.05,289.74-.11,434.61-.14,94.25-.02,188.5,0,282.74,0v-.22Zm-59.32,182.32h-.19c0-48.9.07-97.79-.04-146.69-.04-16.21-.26-16.48-16.83-16.49-96.18-.08-192.37-.02-288.55,0-2,0-3.99.15-5.99.17-3.64.05-5.46,1.8-5.51,5.51-.09,6.65-.4,13.3-.4,19.95,0,92.14-.05,184.27.14,276.41.04,18.83-3.63,19.19,19.78,19.24,49.59.11,99.18.15,148.77.18,46.59.03,93.19.06,139.78,0,9-.01,9.03-.22,9.03-8.59,0-49.89,0-99.79,0-149.68Zm-654.72-3.19c-.07,0-.14,0-.21,0,0,3.33,0,6.65,0,9.98.07,46.57.13,93.15.21,139.72.02,10.46.64,11.08,11.29,11.49,1,.04,2,.04,3,.05,23.3.07,46.6.17,69.9.19,9.07,0,9.06-.08,9.07-9.51.03-30.27.06-60.54.1-90.82,0-2.33-.01-4.66.14-6.98.35-5.11,3.32-7.84,8.25-8.34,2.97-.3,5.98-.22,8.98-.22,38.95,0,77.89.06,116.84.05,27.96,0,55.92-.04,83.88-.19,7.07-.04,7.22-.28,7.23-7.06.03-61.54.1-123.09-.08-184.63-.04-15.21-.05-13.64-13.78-13.65-97.86-.06-195.72.02-293.58.06-1.66,0-3.33.14-4.99.09-4.2-.12-6.06,2.07-6.13,6.07-.04,2.33-.08,4.66-.08,6.99,0,48.9,0,97.8,0,146.71Zm784.87.26h.07c0,50.58-.02,101.16.02,151.74,0,8.1.12,8.24,8.16,8.83,5.64.41,11.31.51,16.96.51,18.31.03,36.63-.05,54.94-.09q10.83-.03,10.85-11.24c0-1-.01-2-.01-2.99,0-64.89-.01-129.78,0-194.67,0-12.35,1.32-14.05,13.51-14.26,16.27-.28,32.55.09,48.83.09,20.31,0,40.62-.19,60.93-.07,10.09.06,12.14,2.23,12.51,12.44.23,6.32.11,12.64.11,18.97-.02,58.57-.06,117.14-.06,175.7,0,10.18,4.14,15.43,13.67,15.59,23.3.38,46.61.14,69.92.26,4.58.02,6.86-1.77,6.61-6.47-.09-1.66.05-3.33.05-4.99-.16-97.5-.31-195-.48-292.5-.04-21.25-1.86-17.08-17.82-17.12-83.24-.23-166.48-.17-249.73-.18-13.32,0-26.64.1-39.96.23-8.97.09-8.97.15-9.07,9.49-.01,1-.01,2-.01,2.99,0,49.25,0,98.5,0,147.75Zm488.33-160.22v-.34c-16.31,0-32.63-.03-48.94,0-31.3.07-62.59.14-93.89.27-8.85.04-8.82.14-8.84,8.47-.02,7.32-.17,14.64-.15,21.96.06,19.96.07,39.93.35,59.89.1,6.98.42,6.99,7.37,7.36,2.33.13,4.66.21,6.99.22,25.63.11,51.27.16,76.9.33,15.18.1,15.94.94,16.05,15.67,0,.33,0,.67,0,1,.08,45.58.17,91.17.25,136.75.03,19.3-.05,38.6.09,57.9.08,10.93.25,11.16,10.65,11.26,25.97.26,51.94.37,77.9.36,7.83,0,7.84-.28,8.08-7.68.05-1.66.03-3.33.03-4.99-.05-59.23-.11-118.46-.15-177.68,0-7.65-.07-15.31.23-22.96.25-6.3,2.01-8.28,8.14-9.41,3.24-.6,6.62-.63,9.94-.63,24.3-.03,48.61.09,72.91,0,8.82-.03,8.92-.24,8.98-8.78.09-14.64.06-29.28.02-43.92-.03-11.98.08-23.96-.27-35.93-.22-7.6-1.52-8.61-8.82-9.05-1.99-.12-3.99-.07-5.99-.07-45.95,0-91.89,0-137.84,0Zm-508.35,161.18s.09,0,.14,0c0-7.65.02-15.3,0-22.95-.1-40.58-.11-81.16-.34-121.74-.1-18.4.41-16.53-17.17-16.7-20.63-.19-41.27.08-61.9.29-12.22.13-12.44.26-12.45,12.7-.07,99.45-.05,198.91-.06,298.36,0,1.66.11,3.33.11,4.99,0,2.86,1.47,4.2,4.25,4.35,2.99.17,5.98.57,8.96.58,23.3.08,46.59.16,69.89.1,8.49-.02,8.56-.21,8.56-9.31.02-50.23.01-100.45.01-150.68Z"/>
      <path class="cls-2" d="m306.4,291.67c95.56,0,191.13,0,286.69,0,2,0,4,0,5.99.02,13.08.13,15.16,2,15.22,14.97.17,35.61.23,71.21.22,106.82,0,11.15-1.98,12.88-13.63,13.41-27.29,1.25-54.6.27-81.9.66-2.33.03-4.66,0-6.99.09-8.61.36-8.79.37-8.81,9.17-.15,57.24-.21,114.47-.32,171.71-.02,9.65-.05,19.3-.27,28.95-.23,9.9-2.86,12.77-12.35,12.79-36.96.09-73.92.08-110.88-.08-11.03-.05-12.5-1.73-12.52-13.06-.1-64.23-.07-128.45-.2-192.68-.04-19.65.45-16.71-16.59-16.71-65.26,0-130.52.05-195.79.25-17.22.05-15.12-1.29-15.43,14.9-.4,20.62-.18,41.26-.02,61.89.07,9.82.28,10.07,10.2,10.16,25.97.24,51.94.31,77.91.31,25.97,0,51.94-.17,77.91-.25,2,0,4,0,5.99.07,11.42.43,13.63,2.58,13.68,14.66.13,33.27.09,66.55.1,99.83,0,3.66.15,7.34-.18,10.98-.56,6.06-3.41,8.9-9.45,9.59-2.63.3-5.32.18-7.98.18-94.9,0-189.8.01-284.69,0-3.99,0-8-.02-11.98-.34-7.07-.57-9.3-2.71-9.82-9.92C.06,634.05,0,628.04,0,622.06c.11-103.82.26-207.65.41-311.47,0-2.99-.05-6,.15-8.98.46-6.78,2.39-8.74,9.16-9.19,3.32-.22,6.66-.1,9.99-.1,95.56,0,191.13,0,286.69,0,0-.21,0-.42,0-.63Zm3.45,18.95s0,.09,0,.13c-90.57,0-181.13-.02-271.7.02-16.78,0-16.89.11-16.9,17.2-.08,97.83-.11,195.67-.15,293.5,0,1,.08,2-.02,2.99-.45,4.92,1.52,7.62,6.72,7.53,2.66-.04,5.33.12,7.99.12,18.65.02,37.29.06,55.94.04,67.59-.05,135.18-.11,202.77-.19,9.99-.01,10.07-.06,10.07-9.81,0-25.29,0-50.58-.13-75.87-.06-11.91-.71-12.58-12.33-12.7-22.31-.24-44.61-.39-66.92-.4-30.3-.01-60.6.31-90.9.16-14.05-.07-16.1-2.34-16.1-16.35-.02-29.95.19-59.9.23-89.84q.03-17.93,17.54-17.96c76.58-.08,153.16-.18,229.74-.27,3.33,0,6.67-.05,9.98.19,8.06.6,10.42,2.92,10.91,11.18.33,5.64.17,11.31.17,16.97.04,61.23.03,122.46.13,183.69.02,10.43.34,10.78,10.54,10.86,23.97.18,47.95.21,71.92.16,13.84-.03,13.62,1.63,13.63-13.46.04-64.22.1-128.45.16-192.67,0-2.66-.13-5.34.08-7.98.47-6.04,2.53-8.25,8.57-8.89,3.3-.35,6.65-.18,9.98-.18,27.97.02,55.94.1,83.91.05,9.27-.02,9.39-.16,9.4-9.3.04-25.29.05-50.58-.07-75.87-.06-12.96-.19-13.05-13.47-13.05-90.57-.03-181.13-.01-271.7-.01Z"/>
      <path class="cls-2" d="m1230.47,402.14c17.97,0,35.93-.07,53.9.03,10.6.06,13.03,2.15,13.1,12.88.23,34.91.24,69.82.11,104.73-.04,9.97-2.58,12.39-12.48,12.41-36.6.08-73.2.06-109.79-.07-10.66-.04-12.95-2.28-13.01-12.85-.2-34.58-.3-69.16-.22-103.74.03-11.48,1.95-13.2,13.5-13.27,18.3-.11,36.6-.03,54.9-.03v-.1Zm1.35,111.1c0,.17,0,.34,0,.51,12.62,0,25.25.04,37.87-.01,9.4-.04,9.46-.09,9.44-9.08-.04-18.92-.16-37.85-.25-56.77-.03-5.98.17-11.96-.15-17.92-.43-7.8-1.23-8.68-8.75-8.72-27.24-.16-54.48-.21-81.72-.11-7.43.03-7.76.34-7.79,7.93-.1,25.56-.01,51.13.15,76.69.04,6.77.28,7.24,7.36,7.39,14.6.32,29.22.1,43.83.1Z"/>
      <path class="cls-2" d="m894.75,408.54c17.3,0,34.6-.11,51.89.05,7.66.07,10.11,2.66,10.09,9.15,0,4.79-2.29,7.49-6.87,8.24-1.95.32-3.98.23-5.97.23-32.27,0-64.53-.02-96.8-.05-2.66,0-5.34.05-7.98-.25-5.91-.68-8.67-3.73-8.39-8.97.28-5.28,3.05-8.16,9.14-8.26,15.63-.26,31.27-.18,46.9-.24,2.66,0,5.32,0,7.98,0v.09Z"/>
      <g class="cls-5">
        <path class="cls-3" d="m1337.68,164.97c-.65-2.53,2.08-4.96,4.72-7.6,14.32-14.37,28.55-28.83,42.84-43.23,33.05-33.27,66.11-66.54,99.21-99.76,7.4-7.43,10.21-7.02,20.02-2.97,5.12,2.12,9.46,5.35,14.47,7.5,6.23,2.67,6.94,6.06,2.87,11.63-1.56,2.13-3.59,3.92-5.47,5.8-40.94,40.92-81.9,81.8-122.81,122.75-10.34,10.35-20.49,20.9-30.75,31.33-1.63,1.65-3.25,3.4-5.17,4.64-2.02,1.31-4.57,1.93-6.17-.63-4.96-7.96-9.71-16.05-13.21-24.78-.36-.89-.25-1.96-.54-4.69Z"/>
        <path class="cls-4" d="m1408.81,237.73c-6.06-1.34-12.01-4.95-18.15-8.03-2.01-1.01-3.58-2.75-5.75-3.77-6.01-2.84-6.34-5.09-1.7-10.24,4.9-5.42,9.92-10.75,15.08-15.92,47.23-47.23,94.51-94.41,141.78-141.61,1.18-1.17,2.32-2.39,3.57-3.48,6.4-5.62,8.62-5.22,12.43,2.44,2.17,4.35,5.04,8.23,7.07,12.76,4.79,10.72,4.94,13.24-3.18,21.58-8.11,8.33-16.3,16.59-24.52,24.82-35.46,35.5-70.93,70.99-106.44,106.44-3.99,3.99-8.27,7.69-12.39,11.55-1.98,1.86-4.11,3.38-7.8,3.46Z"/>
        <path class="cls-3" d="m1329.96,119.88c1.05-27.82,9.04-52.4,26.58-73.62,11.61-14.05,24.93-26.1,41.98-32.88,6.45-2.57,12.99-4.67,19.2-8,6.37-3.42,14.25-1.68,20.94-4.78,1.42-.66,3.28-.44,4.94-.49,1.57-.05,3.47-.65,4.26,1.45.64,1.69.1,3.34-.96,4.66-1.46,1.81-3.06,3.51-4.7,5.16-34.06,34.15-68.11,68.32-102.24,102.39-2.47,2.46-4.48,5.9-9.99,6.11Z"/>
        <path class="cls-4" d="m1452.85,245.82c6.9-10.18,115.56-118.04,122.6-121.63,1.95,16.88-4.8,31.36-9.66,46.2-5.09,15.56-14.69,28.19-25.79,39.86-11.34,11.92-25.61,19.54-40.38,25.88-14.35,6.17-29.22,11.54-46.78,9.69Z"/>
      </g>
    </g>
  </g>
</svg>