<?xml version="1.0" encoding="UTF-8"?>
<svg id="Capa_2" data-name="Capa 2" xmlns="http://www.w3.org/2000/svg" xmlns:xlink="http://www.w3.org/1999/xlink" viewBox="0 0 649.1 97.04">
  <defs>
    <style>
      .cls-1, .cls-2 {
        fill: none;
      }

      .cls-1, .cls-3, .cls-4 {
        stroke-width: 0px;
      }

      .cls-2 {
        stroke: #1d1d1b;
        stroke-width: 2.53px;
      }

      .cls-3 {
        fill: #0086cd;
      }

      .cls-5 {
        clip-path: url(#clippath);
      }

      .cls-4 {
        fill: #1d1d1b;
      }
    </style>
    <clipPath id="clippath">
      <path class="cls-1" d="m626.19,92.92h-18.79s.02-6.01.02-7.93c-5.64,5.76-12.91,7.87-19.55,7.87-25.91,0-43.98-20.6-43.98-46.43S561.96,0,587.87,0c17.76,0,27.34,4.24,38.27,20.3l-18.1,10.29c-4.15-7.41-10.61-12.13-19.61-12.13-14.4,0-21.82,14.33-21.82,27.56s7.42,26.87,21.82,26.87c11.04,0,19.54-8.45,20.74-16.57h-17.46v-17.15h34.48v53.75"/>
    </clipPath>
  </defs>
  <g id="Capa_1-2" data-name="Capa 1">
    <g>
      <path class="cls-3" d="m41.19,64.21h20.3c-3.87,8.35-10.63,12.53-20.3,12.53-5.96,0-10.98-2.28-15.08-6.85-4.1-4.56-6.15-9.94-6.15-16.13,0-8.74,3.13-16.44,9.4-23.09,6.27-6.65,13.77-9.98,22.51-9.98,9.51,0,17.63,3.09,24.36,9.28,6.73,6.19,10.09,14.23,10.09,24.13,0,8.59-2.2,16.55-6.61,23.9-4.41,7.35-9.71,12.37-15.89,15.08h29.59c4.79-5.96,8.08-11.91,9.86-17.86,1.86-6.03,2.79-13.11,2.79-21.23,0-14.85-5.14-27.42-15.43-37.71C80.33,6.01,67.45.86,51.98.86c-14.07,0-26.26,5.11-36.55,15.32C5.15,26.39,0,38.99,0,54c0,11.14,4.02,21.08,12.07,29.82,8.12,8.82,17.83,13.23,29.12,13.23,5.88,0,12.03-1.35,18.45-4.06,6.5-2.63,12.14-7.54,16.94-14.73,4.87-7.11,7.31-14.27,7.31-21.46,0-1.24-.04-2.36-.12-3.36-.08-1.01-.19-2.17-.35-3.48-.08-1.39-.47-3.4-1.16-6.03h-41.07v20.3"/>
      <polyline class="cls-4" points="371.83 .71 395.58 .71 426.04 47.94 426.04 .71 447.88 .71 447.88 93.15 428.09 93.15 394.42 39.54 394.41 93.15 371.83 93.15 371.83 .71"/>
      <polyline class="cls-4" points="371.83 .71 395.58 .71 426.04 47.94 426.04 .71 447.88 .71 447.88 93.15 428.09 93.15 394.42 39.54 394.41 93.15 371.83 93.15 371.83 .71"/>
      <path class="cls-4" d="m451.7,46.82c0,25.89,15.89,46.53,44.03,46.53s44.03-20.64,44.03-46.53S523.87.29,495.73.29s-44.03,20.64-44.03,46.53m23.27,0c0-13.26,5.75-26.52,20.76-26.52s20.76,13.26,20.76,26.52-5.75,26.52-20.76,26.52-20.76-13.26-20.76-26.52Z"/>
      <polyline class="cls-4" points="130.29 .63 206.52 .64 206.52 20.22 179.99 20.22 179.99 93.07 155.7 93.07 155.7 20.22 130.29 20.22 130.29 .63"/>
      <polyline class="cls-4" points="210.33 .64 282.06 .64 282.06 20.03 234.05 20.03 234.05 35.47 278.72 35.47 278.72 54.48 234.05 54.48 234.05 73.68 281.83 73.68 281.83 93.08 210.33 93.08 210.33 .64"/>
      <path class="cls-4" d="m348.69,57.21c-2.42,8.89-9.11,15.88-19.83,15.88-14.72,0-20.37-13.19-20.37-26.38s5.64-26.38,20.37-26.38c9.79,0,17.08,5.83,19.85,13.62l19.68-10.91c-6.7-13.59-21.23-22.61-39.54-22.61-27.61,0-43.2,20.53-43.2,46.28s15.59,46.28,43.2,46.28c18.98,0,32.62-9.7,39.08-24.13l-19.25-11.65"/>
      <line class="cls-2" x1="631.97" y1="92.9" x2="631.97" y2=".62"/>
      <line class="cls-2" x1="637.25" y1=".61" x2="637.25" y2="92.9"/>
      <line class="cls-2" x1="642.55" y1=".61" x2="642.55" y2="92.9"/>
      <line class="cls-2" x1="647.84" y1=".61" x2="647.84" y2="92.9"/>
      <g class="cls-5">
        <line class="cls-2" x1="545.41" y1="-27.83" x2="545.41" y2="120.16"/>
        <line class="cls-2" x1="550.7" y1="-27.83" x2="550.7" y2="120.16"/>
        <line class="cls-2" x1="556" y1="120.16" x2="556" y2="-27.83"/>
        <line class="cls-2" x1="561.29" y1="-29.69" x2="561.29" y2="122.33"/>
        <line class="cls-2" x1="566.58" y1="122.33" x2="566.58" y2="-29.69"/>
        <line class="cls-2" x1="571.87" y1="-29.69" x2="571.87" y2="122.33"/>
        <line class="cls-2" x1="577.16" y1="-29.69" x2="577.16" y2="122.33"/>
        <line class="cls-2" x1="582.45" y1="-29.69" x2="582.45" y2="122.33"/>
        <line class="cls-2" x1="587.74" y1="-29.69" x2="587.74" y2="122.33"/>
        <line class="cls-2" x1="593.03" y1="122.33" x2="593.03" y2="-29.69"/>
        <line class="cls-2" x1="598.33" y1="122.33" x2="598.33" y2="-29.69"/>
        <line class="cls-2" x1="603.61" y1="122.33" x2="603.61" y2="-29.69"/>
        <line class="cls-2" x1="608.91" y1="122.33" x2="608.91" y2="-29.69"/>
        <line class="cls-2" x1="614.2" y1="-29.69" x2="614.2" y2="122.33"/>
        <line class="cls-2" x1="619.49" y1="122.33" x2="619.49" y2="-29.69"/>
        <line class="cls-2" x1="624.78" y1="-29.69" x2="624.78" y2="122.33"/>
      </g>
    </g>
  </g>
</svg>