<?xml version="1.0" encoding="UTF-8"?>
<svg id="Capa_2" data-name="Capa 2" xmlns="http://www.w3.org/2000/svg" viewBox="0 0 141.79 133.57">
  <defs>
    <style>
      .cls-1 {
        fill: #87be3f;
      }

      .cls-1, .cls-2 {
        stroke-width: 0px;
      }

      .cls-2 {
        fill: #fff;
      }
    </style>
  </defs>
  <g id="Capa_1-2" data-name="Capa 1">
    <g>
      <g>
        <path class="cls-2" d="m0,129.61v-14.46h3.84l3.62,8.64h.36l3.61-8.64h3.9v14.46h-2.79v-12.34l.36.04-3.9,9.35h-2.87l-3.92-9.35.38-.04v12.34H0Z"/>
        <path class="cls-2" d="m21.71,129.89c-.78,0-1.46-.14-2.04-.42s-1.03-.67-1.36-1.19-.49-1.14-.49-1.86c0-.79.19-1.44.57-1.94.38-.5.93-.88,1.64-1.13.71-.25,1.55-.38,2.5-.38h2.48v1.66h-2.52c-.63,0-1.12.15-1.46.46-.34.3-.5.7-.5,1.19s.17.89.5,1.19.82.46,1.46.46c.38,0,.74-.07,1.06-.21.32-.14.59-.38.8-.71.21-.34.33-.8.36-1.38l.67.77c-.07.75-.25,1.39-.54,1.9-.3.52-.71.91-1.23,1.18s-1.16.41-1.91.41Zm3.47-.28v-3.19h-.46v-3.55c0-.61-.15-1.07-.46-1.38-.3-.31-.77-.47-1.39-.47-.33,0-.73,0-1.19.02s-.93.03-1.4.05c-.47.02-.89.04-1.26.07v-2.34c.3-.03.64-.05,1.02-.08.38-.03.77-.04,1.18-.05.41,0,.79-.01,1.15-.01,1.11,0,2.03.15,2.76.44s1.29.75,1.66,1.38c.38.63.57,1.44.57,2.45v6.66h-2.2Z"/>
        <path class="cls-2" d="m30.33,129.61v-10.76h2.18v4.56h-.06c0-1.53.33-2.7.99-3.5.66-.8,1.63-1.2,2.91-1.2h.4v2.4h-.75c-.92,0-1.64.25-2.15.75-.51.5-.76,1.22-.76,2.16v5.59h-2.75Z"/>
        <path class="cls-2" d="m38.6,129.61v-10.76h2.18v4.56h-.06c0-1.53.33-2.7.99-3.5s1.63-1.2,2.91-1.2h.4v2.4h-.75c-.93,0-1.64.25-2.15.75s-.76,1.22-.76,2.16v5.59h-2.75Z"/>
        <path class="cls-2" d="m52.03,129.98c-.95,0-1.79-.15-2.52-.46s-1.34-.71-1.84-1.23-.88-1.1-1.14-1.76c-.26-.66-.39-1.35-.39-2.08v-.42c0-.74.13-1.44.4-2.11.26-.67.65-1.26,1.16-1.78.51-.52,1.13-.93,1.86-1.23s1.56-.45,2.47-.45,1.73.15,2.46.45,1.34.71,1.85,1.23c.51.52.89,1.12,1.16,1.78.26.67.4,1.37.4,2.11v.42c0,.73-.13,1.42-.39,2.08-.26.66-.64,1.25-1.14,1.76s-1.12.92-1.84,1.23c-.73.3-1.56.46-2.5.46Zm0-2.36c.66,0,1.22-.15,1.68-.45.46-.3.81-.7,1.06-1.21.24-.51.37-1.09.37-1.73s-.12-1.23-.38-1.74-.61-.92-1.07-1.22c-.46-.3-1.02-.45-1.66-.45s-1.21.15-1.67.45c-.47.3-.83.7-1.08,1.22-.25.52-.38,1.1-.38,1.74s.12,1.23.37,1.73c.24.51.6.91,1.06,1.21s1.03.45,1.7.45Z"/>
        <path class="cls-2" d="m68.26,133.57v-7.15l.81-1.27c-.03,1.04-.23,1.92-.61,2.64s-.9,1.25-1.55,1.62c-.65.37-1.4.55-2.25.55-.75,0-1.44-.14-2.06-.43s-1.16-.68-1.6-1.18-.79-1.09-1.03-1.76-.36-1.39-.36-2.16v-.44c0-.77.12-1.48.37-2.15s.6-1.25,1.06-1.75c.46-.5,1.01-.89,1.63-1.17.63-.28,1.32-.42,2.09-.42.9,0,1.68.19,2.35.57.67.38,1.19.94,1.57,1.67.38.73.58,1.63.6,2.68h-.44v-4.6h2.2v14.72h-2.77Zm-2.87-5.96c.54,0,1.03-.12,1.48-.37.44-.24.8-.6,1.07-1.07.27-.47.41-1.02.41-1.65v-.79c0-.62-.14-1.15-.42-1.58s-.64-.77-1.09-1-.93-.35-1.45-.35c-.6,0-1.12.15-1.58.44-.46.29-.81.69-1.07,1.21-.26.52-.39,1.11-.39,1.78s.13,1.26.4,1.77c.26.51.62.91,1.08,1.19.46.28.97.43,1.56.43Z"/>
        <path class="cls-2" d="m77.83,129.94c-1.25,0-2.22-.41-2.89-1.22-.67-.81-1.01-2.03-1.01-3.66v-6.24h2.75v6.48c0,.66.19,1.19.55,1.58.37.39.87.58,1.51.58s1.15-.21,1.56-.61c.4-.41.6-.96.6-1.66v-6.36h2.75v10.78h-2.18v-4.58h.22c0,1.1-.14,2.01-.43,2.73-.28.73-.7,1.27-1.25,1.63s-1.24.54-2.07.54h-.12Z"/>
        <path class="cls-2" d="m85.83,120.91v-2.06h4.26v2.06h-4.26Zm2.52-3.35c-.54,0-.94-.14-1.2-.42-.26-.28-.39-.64-.39-1.09s.13-.79.39-1.07c.26-.28.66-.42,1.2-.42s.94.14,1.19.42c.25.28.38.63.38,1.07s-.13.81-.38,1.09c-.25.28-.65.42-1.19.42Zm-1.01,12.05v-10.76h2.75v10.76h-2.75Z"/>
        <path class="cls-2" d="m93.26,129.61v-10.76h2.18v4.62h-.2c0-1.1.15-2.01.44-2.74.29-.73.72-1.28,1.3-1.65.57-.37,1.29-.55,2.15-.55h.12c1.28,0,2.25.41,2.91,1.24.66.83.99,2.06.99,3.7v6.16h-2.75v-6.4c0-.66-.19-1.2-.57-1.6-.38-.41-.9-.61-1.55-.61s-1.22.21-1.63.63-.62.98-.62,1.66v6.32h-2.75Z"/>
        <path class="cls-2" d="m110.92,129.98c-.93,0-1.73-.16-2.43-.48s-1.27-.74-1.72-1.28c-.46-.54-.8-1.13-1.03-1.79-.23-.66-.35-1.33-.35-2.02v-.38c0-.71.12-1.4.35-2.07.23-.67.57-1.26,1.02-1.78.45-.52,1.01-.94,1.69-1.25.68-.31,1.46-.47,2.35-.47,1.16,0,2.14.25,2.92.76.79.51,1.38,1.18,1.77,2s.59,1.71.59,2.66v1.01h-9.53v-1.7h7.79l-.83.83c0-.69-.1-1.27-.31-1.76-.21-.49-.5-.87-.9-1.13s-.9-.4-1.51-.4-1.12.14-1.54.43c-.42.28-.74.68-.96,1.2-.22.52-.33,1.14-.33,1.86,0,.67.11,1.27.32,1.79s.54.93.97,1.23c.44.3.99.45,1.66.45s1.2-.14,1.62-.41c.42-.27.69-.6.81-1h2.56c-.16.74-.46,1.39-.91,1.94s-1.02.98-1.71,1.29-1.48.46-2.37.46Z"/>
        <path class="cls-2" d="m118.38,129.61v-10.76h2.18v4.56h-.06c0-1.53.33-2.7.99-3.5.66-.8,1.63-1.2,2.91-1.2h.4v2.4h-.75c-.92,0-1.64.25-2.15.75-.51.5-.76,1.22-.76,2.16v5.59h-2.75Z"/>
        <path class="cls-2" d="m125.66,120.91v-2.06h4.26v2.06h-4.26Zm2.52-3.35c-.54,0-.94-.14-1.2-.42s-.39-.64-.39-1.09.13-.79.39-1.07.66-.42,1.2-.42.94.14,1.19.42c.25.28.38.63.38,1.07s-.12.81-.38,1.09c-.25.28-.65.42-1.19.42Zm-1.01,12.05v-10.76h2.75v10.76h-2.75Z"/>
        <path class="cls-2" d="m136.12,129.89c-.78,0-1.46-.14-2.04-.42-.58-.28-1.03-.67-1.36-1.19-.32-.52-.49-1.14-.49-1.86,0-.79.19-1.44.58-1.94.38-.5.93-.88,1.64-1.13.71-.25,1.55-.38,2.5-.38h2.48v1.66h-2.52c-.63,0-1.12.15-1.46.46-.34.3-.51.7-.51,1.19s.17.89.51,1.19c.34.3.82.46,1.46.46.38,0,.74-.07,1.06-.21s.59-.38.8-.71.33-.8.36-1.38l.67.77c-.07.75-.25,1.39-.54,1.9s-.71.91-1.23,1.18c-.52.27-1.16.41-1.91.41Zm3.47-.28v-3.19h-.46v-3.55c0-.61-.15-1.07-.46-1.38-.3-.31-.77-.47-1.39-.47-.33,0-.73,0-1.19.02-.46.01-.93.03-1.4.05-.47.02-.89.04-1.26.07v-2.34c.3-.03.64-.05,1.02-.08s.77-.04,1.18-.05c.41,0,.79-.01,1.15-.01,1.11,0,2.03.15,2.76.44.73.29,1.29.75,1.66,1.38.38.63.56,1.44.56,2.45v6.66h-2.2Z"/>
      </g>
      <polygon class="cls-1" points="23.15 82.88 70.89 49.27 118.64 82.88 87.68 89.17 70.89 96.94 49.64 88.53 25.6 83.37 23.15 82.88"/>
      <path class="cls-2" d="m70.66,31.64c-2.77,0-5.02-2.25-5.02-5.02s2.25-5.02,5.02-5.02,5.02,2.25,5.02,5.02-2.25,5.02-5.02,5.02Zm0-6.63c-.89,0-1.61.72-1.61,1.61s.72,1.61,1.61,1.61,1.61-.72,1.61-1.61-.72-1.61-1.61-1.61Z"/>
      <path class="cls-2" d="m70.66,75.55c-2.77,0-5.02-2.25-5.02-5.02s2.25-5.02,5.02-5.02,5.02,2.25,5.02,5.02-2.25,5.02-5.02,5.02Zm0-6.63c-.89,0-1.61.72-1.61,1.61s.72,1.61,1.61,1.61,1.61-.72,1.61-1.61-.72-1.61-1.61-1.61Z"/>
      <path class="cls-2" d="m70.89,98.65c-.28,0-.56-.07-.82-.21-25.51-13.9-44.18-14.39-46.56-13.89-.72.14-1.46-.17-1.83-.8-.37-.63-.31-1.42.16-1.97,12.39-14.42,16.2-29.75,11.31-45.55-3.68-11.89-11.16-19.65-11.24-19.72-.66-.67-.65-1.75.03-2.41.67-.66,1.75-.65,2.41.02.31.32,30.06,31.4,2.44,67,7.37.34,23.62,2.91,44.09,13.9,20.47-10.99,36.72-13.56,44.09-13.9-27.62-35.59,2.13-66.68,2.44-67,.66-.67,1.74-.68,2.41-.02.67.66.68,1.74.03,2.41-.08.08-7.56,7.83-11.24,19.72-4.89,15.8-1.08,31.13,11.31,45.55.48.56.55,1.36.17,1.99-.38.63-1.12.95-1.83.79-2.37-.49-21.05,0-46.56,13.89-.25.14-.54.21-.82.21Z"/>
      <path class="cls-2" d="m86.71,50.75h-31.63c-.94,0-1.71-.76-1.71-1.71s.76-1.71,1.71-1.71h31.63c.94,0,1.71.76,1.71,1.71s-.76,1.71-1.71,1.71Z"/>
      <path class="cls-2" d="m86.71,42.22h-31.63c-.94,0-1.71-.76-1.71-1.71s.76-1.71,1.71-1.71h31.63c.94,0,1.71.76,1.71,1.71s-.76,1.71-1.71,1.71Z"/>
      <path class="cls-2" d="m86.71,59.29h-31.63c-.94,0-1.71-.76-1.71-1.71s.76-1.71,1.71-1.71h31.63c.94,0,1.71.76,1.71,1.71s-.76,1.71-1.71,1.71Z"/>
      <path class="cls-2" d="m118.64,17.01h-.04c-15.05-.33-27.68-2.69-37.54-7.01-.86-.38-1.25-1.39-.88-2.25.38-.86,1.38-1.26,2.25-.88,6.49,2.85,18.05,6.33,36.24,6.73.94.02,1.69.8,1.67,1.74-.02.93-.78,1.67-1.7,1.67Z"/>
      <path class="cls-2" d="m23.14,17.01c-.93,0-1.69-.74-1.71-1.67-.02-.94.73-1.72,1.67-1.74C56.6,12.88,68.21,1.79,69.42.52c.65-.68,1.73-.7,2.41-.05.68.65.7,1.73.05,2.41-2.14,2.23-14.56,13.38-48.71,14.12h-.04Z"/>
    </g>
  </g>
</svg>