<?xml version="1.0" encoding="UTF-8"?>
<svg id="Capa_2" data-name="Capa 2" xmlns="http://www.w3.org/2000/svg" viewBox="0 0 112.09 126.08">
  <defs>
    <style>
      .cls-1 {
        fill: #87be3f;
      }

      .cls-1, .cls-2 {
        stroke-width: 0px;
      }

      .cls-2 {
        fill: #fff;
      }
    </style>
  </defs>
  <g id="Capa_1-2" data-name="Capa 1">
    <g>
      <g>
        <path class="cls-2" d="m7.65,126.08c-1.37,0-2.54-.24-3.5-.71-.97-.47-1.75-1.1-2.36-1.87-.61-.77-1.06-1.61-1.35-2.51s-.43-1.77-.43-2.62v-.45c0-.93.15-1.85.44-2.75.29-.9.75-1.73,1.36-2.47.61-.74,1.39-1.33,2.34-1.78s2.08-.67,3.38-.67,2.54.25,3.56.74c1.01.49,1.82,1.18,2.42,2.06.6.88.97,1.9,1.09,3.08h-2.96c-.1-.69-.33-1.26-.71-1.73-.38-.47-.86-.82-1.44-1.07-.58-.25-1.24-.37-1.96-.37s-1.38.13-1.95.39c-.58.26-1.06.62-1.44,1.09s-.67,1.01-.87,1.64c-.2.63-.3,1.32-.3,2.08s.1,1.43.3,2.06c.2.63.5,1.18.89,1.65s.89.84,1.47,1.1,1.26.39,2.02.39c1.12,0,2.07-.28,2.84-.83.77-.56,1.23-1.33,1.4-2.33h2.96c-.14,1.07-.5,2.05-1.09,2.94s-1.4,1.6-2.42,2.14c-1.03.53-2.25.8-3.68.8Z"/>
        <path class="cls-2" d="m22.44,126.08c-.99,0-1.86-.16-2.61-.47-.75-.32-1.39-.74-1.91-1.27-.52-.53-.92-1.14-1.18-1.83-.27-.69-.4-1.4-.4-2.16v-.43c0-.77.14-1.5.41-2.19.27-.69.67-1.31,1.2-1.85.53-.54,1.17-.97,1.93-1.27.76-.31,1.61-.46,2.56-.46s1.79.15,2.55.46c.75.31,1.39.73,1.92,1.27.53.54.93,1.16,1.2,1.85.27.69.41,1.42.41,2.19v.43c0,.75-.13,1.47-.4,2.16-.27.69-.66,1.29-1.18,1.83-.52.53-1.16.96-1.91,1.27-.75.31-1.62.47-2.59.47Zm0-2.45c.68,0,1.27-.15,1.75-.46.48-.31.85-.73,1.1-1.25.25-.53.38-1.13.38-1.8s-.13-1.27-.39-1.81c-.26-.53-.63-.96-1.11-1.26-.48-.31-1.06-.46-1.73-.46s-1.25.15-1.74.46c-.49.31-.86.73-1.12,1.26-.26.53-.39,1.14-.39,1.81s.13,1.27.38,1.8c.25.53.62.95,1.1,1.25.48.31,1.07.46,1.77.46Z"/>
        <path class="cls-2" d="m29.78,112.82v-2.14h4.25v2.14h-4.25Zm1.4,12.87v-15h2.86v15h-2.86Z"/>
        <path class="cls-2" d="m42.24,126.08c-.96,0-1.8-.16-2.51-.48-.71-.32-1.3-.76-1.77-1.32-.47-.56-.82-1.17-1.05-1.86-.23-.68-.35-1.38-.35-2.1v-.39c0-.75.12-1.48.36-2.17.24-.69.6-1.31,1.07-1.85.47-.54,1.06-.97,1.77-1.29.71-.32,1.52-.48,2.46-.48.99,0,1.86.19,2.63.57.77.38,1.38.9,1.84,1.57s.72,1.45.77,2.34h-2.79c-.07-.56-.31-1.04-.72-1.43-.41-.39-.99-.59-1.73-.59-.62,0-1.13.15-1.55.45-.42.3-.73.72-.94,1.24-.21.53-.31,1.13-.31,1.82s.1,1.25.3,1.79c.2.53.51.95.92,1.25.42.3.95.45,1.59.45.51,0,.94-.09,1.29-.27.36-.18.64-.42.85-.74.21-.31.34-.67.38-1.07h2.8c-.06.9-.32,1.7-.79,2.37s-1.1,1.21-1.87,1.59-1.66.58-2.66.58Z"/>
        <path class="cls-2" d="m49.84,125.69v-15h2.86v8.76h-.49c0-1.12.14-2.08.43-2.86.29-.78.72-1.38,1.28-1.79s1.29-.62,2.17-.62h.12c1.27,0,2.24.44,2.9,1.32.66.88.99,2.15.99,3.82v6.37h-2.86v-6.64c0-.7-.21-1.26-.62-1.67s-.94-.63-1.58-.63c-.7,0-1.26.23-1.7.69-.43.46-.65,1.06-.65,1.8v6.45h-2.86Z"/>
        <path class="cls-2" d="m68.52,126.08c-.99,0-1.86-.16-2.61-.47-.75-.32-1.39-.74-1.91-1.27-.52-.53-.92-1.14-1.18-1.83-.27-.69-.4-1.4-.4-2.16v-.43c0-.77.14-1.5.41-2.19.27-.69.67-1.31,1.2-1.85.53-.54,1.17-.97,1.93-1.27.76-.31,1.61-.46,2.56-.46s1.79.15,2.55.46c.75.31,1.39.73,1.92,1.27.53.54.93,1.16,1.2,1.85.27.69.41,1.42.41,2.19v.43c0,.75-.13,1.47-.4,2.16-.27.69-.66,1.29-1.18,1.83-.52.53-1.16.96-1.91,1.27-.75.31-1.62.47-2.59.47Zm0-2.45c.68,0,1.27-.15,1.75-.46.48-.31.85-.73,1.1-1.25.25-.53.38-1.13.38-1.8s-.13-1.27-.39-1.81c-.26-.53-.63-.96-1.11-1.26-.48-.31-1.06-.46-1.73-.46s-1.25.15-1.74.46c-.49.31-.86.73-1.12,1.26-.26.53-.39,1.14-.39,1.81s.13,1.27.38,1.8c.25.53.62.95,1.1,1.25.48.31,1.07.46,1.77.46Z"/>
        <path class="cls-2" d="m77.11,125.69v-11.16h2.26v4.79h-.21c0-1.14.15-2.09.45-2.85.3-.76.75-1.33,1.35-1.72.6-.38,1.34-.58,2.23-.58h.12c1.33,0,2.34.43,3.02,1.28.69.86,1.03,2.13,1.03,3.83v6.39h-2.86v-6.64c0-.69-.2-1.24-.6-1.66s-.93-.64-1.6-.64-1.26.22-1.7.66-.65,1.01-.65,1.73v6.56h-2.86Z"/>
        <path class="cls-2" d="m95.43,126.08c-.96,0-1.8-.16-2.52-.49-.72-.33-1.32-.77-1.79-1.33-.47-.56-.83-1.17-1.07-1.86-.24-.69-.36-1.38-.36-2.1v-.39c0-.74.12-1.46.36-2.15.24-.69.59-1.31,1.06-1.85.47-.54,1.05-.97,1.76-1.29.71-.32,1.52-.48,2.44-.48,1.21,0,2.22.26,3.03.79.81.53,1.43,1.22,1.84,2.08.41.86.62,1.78.62,2.76v1.05h-9.89v-1.77h8.08l-.86.86c0-.71-.11-1.32-.32-1.83-.21-.51-.52-.9-.94-1.17s-.93-.41-1.56-.41-1.17.15-1.6.44c-.44.29-.77.71-1,1.24-.23.53-.34,1.18-.34,1.93,0,.7.11,1.32.33,1.86.22.54.55.97,1.01,1.27s1.03.46,1.73.46,1.25-.14,1.69-.42c.44-.28.72-.63.84-1.04h2.65c-.16.77-.48,1.44-.95,2.01-.47.58-1.06,1.02-1.78,1.34-.72.31-1.54.47-2.46.47Z"/>
        <path class="cls-2" d="m107.22,126.04c-1.54,0-2.74-.33-3.61-.98-.87-.65-1.33-1.55-1.39-2.7h2.59c.04.38.25.73.64,1.05.38.32.99.47,1.81.47.67,0,1.21-.12,1.62-.37.41-.25.62-.58.62-1.01,0-.36-.15-.64-.46-.86-.31-.22-.84-.37-1.59-.45l-.97-.1c-1.26-.12-2.23-.48-2.9-1.06-.67-.58-1.01-1.35-1.01-2.31,0-.77.19-1.41.58-1.93.38-.52.91-.91,1.59-1.18.68-.27,1.46-.4,2.35-.4,1.37,0,2.48.3,3.33.9s1.29,1.49,1.34,2.67h-2.57c-.04-.4-.24-.73-.59-1.01-.35-.27-.86-.41-1.53-.41-.6,0-1.07.12-1.4.35-.33.23-.49.53-.49.9s.13.63.4.82c.27.19.7.32,1.3.39l.99.1c1.32.14,2.35.5,3.09,1.09.75.59,1.12,1.38,1.12,2.38,0,.74-.2,1.38-.61,1.93-.4.55-.97.97-1.7,1.26-.73.29-1.58.44-2.57.44Z"/>
      </g>
      <path class="cls-1" d="m14.08,92.35c1.14,1.46,3.28,3.83,6.69,5.69,3.77,2.05,7.27,2.48,9.17,2.57,18.37-.17,36.75-.35,55.12-.52,1.61-.42,4.31-1.36,7.01-3.51,2.24-1.78,3.63-3.72,4.44-5.05-13.54-13.46-27.08-26.92-40.61-40.38-13.94,13.73-27.87,27.46-41.81,41.2Z"/>
      <g>
        <path class="cls-2" d="m80.57,0H29.7C19.12,0,10.51,8.61,10.51,19.19v64.1c0,10.58,8.61,19.19,19.19,19.19h50.87c10.58,0,19.19-8.61,19.19-19.19V19.19c0-10.58-8.61-19.19-19.19-19.19Zm15.58,83.29c0,8.59-6.99,15.58-15.58,15.58H29.7c-8.59,0-15.58-6.99-15.58-15.58V19.19c0-8.59,6.99-15.58,15.58-15.58h50.87c8.59,0,15.58,6.99,15.58,15.58v64.1Z"/>
        <path class="cls-2" d="m88.07,77.64c-.59-.59-1.55-.59-2.15,0l-1.58,1.58-1.58-1.58c-.59-.59-1.55-.59-2.15,0s-.59,1.55,0,2.15l1.58,1.58-1.58,1.58c-.59.59-.59,1.55,0,2.15.3.3.68.44,1.07.44s.78-.15,1.07-.44l1.58-1.58,1.58,1.58c.3.3.68.44,1.07.44s.78-.15,1.07-.44c.59-.59.59-1.55,0-2.15l-1.58-1.58,1.58-1.58c.59-.59.59-1.55,0-2.15Z"/>
        <path class="cls-2" d="m29.65,77.64c-.59-.59-1.55-.59-2.15,0l-1.58,1.58-1.58-1.58c-.59-.59-1.55-.59-2.15,0s-.59,1.55,0,2.15l1.58,1.58-1.58,1.58c-.59.59-.59,1.55,0,2.15.3.3.68.44,1.07.44s.78-.15,1.07-.44l1.58-1.58,1.58,1.58c.3.3.68.44,1.07.44s.78-.15,1.07-.44c.59-.59.59-1.55,0-2.15l-1.58-1.58,1.58-1.58c.59-.59.59-1.55,0-2.15Z"/>
        <path class="cls-2" d="m59.47,48.42c-.59-.59-1.55-.59-2.15,0l-1.58,1.58-1.58-1.58c-.59-.59-1.55-.59-2.15,0s-.59,1.55,0,2.15l1.58,1.58-1.58,1.58c-.59.59-.59,1.55,0,2.15.3.3.68.44,1.07.44s.78-.15,1.07-.44l1.58-1.58,1.58,1.58c.3.3.68.44,1.07.44s.78-.15,1.07-.44c.59-.59.59-1.55,0-2.15l-1.58-1.58,1.58-1.58c.59-.59.59-1.55,0-2.15Z"/>
        <path class="cls-2" d="m23.94,25.74l1.58,1.58c.3.3.68.44,1.07.44s.78-.15,1.07-.44c.59-.59.59-1.55,0-2.15l-1.58-1.58,1.58-1.58c.59-.59.59-1.55,0-2.15s-1.55-.59-2.15,0l-1.58,1.58-1.58-1.58c-.59-.59-1.55-.59-2.15,0s-.59,1.55,0,2.15l1.58,1.58-1.58,1.58c-.59.59-.59,1.55,0,2.15.3.3.68.44,1.07.44s.78-.15,1.07-.44l1.58-1.58Z"/>
        <path class="cls-2" d="m91.2,19.87c-.59-.59-1.55-.59-2.15,0l-1.58,1.58-1.58-1.58c-.59-.59-1.55-.59-2.15,0-.59.59-.59,1.55,0,2.15l1.58,1.58-1.58,1.58c-.59.59-.59,1.55,0,2.15.3.3.68.44,1.07.44s.78-.15,1.07-.44l1.58-1.58,1.58,1.58c.3.3.68.44,1.07.44s.78-.15,1.07-.44c.59-.59.59-1.55,0-2.15l-1.58-1.58,1.58-1.58c.59-.59.59-1.55,0-2.15Z"/>
        <path class="cls-2" d="m69.16,7.63h-28.05c-4.72,0-8.57,3.84-8.57,8.57v14.79c0,4.72,3.84,8.57,8.57,8.57h28.05c4.72,0,8.57-3.84,8.57-8.57v-14.79c0-4.72-3.84-8.57-8.57-8.57Zm5.53,23.36c0,3.05-2.48,5.53-5.53,5.53h-28.05c-3.05,0-5.53-2.48-5.53-5.53v-14.79c0-3.05,2.48-5.53,5.53-5.53h28.05c3.05,0,5.53,2.48,5.53,5.53v14.79Z"/>
        <path class="cls-2" d="m32.9,52.15l1.38-1.38c.7-.7.7-1.84,0-2.53-.7-.7-1.83-.7-2.53,0l-1.38,1.38-1.38-1.38c-.7-.7-1.83-.7-2.53,0-.7.7-.7,1.83,0,2.53l1.38,1.38-1.38,1.38c-.7.7-.7,1.84,0,2.53.35.35.81.52,1.27.52s.92-.17,1.27-.52l1.38-1.38,1.38,1.38c.35.35.81.52,1.27.52s.92-.17,1.27-.52c.7-.7.7-1.83,0-2.53l-1.38-1.38Z"/>
        <path class="cls-2" d="m58.28,85.8l1.38-1.38c.7-.7.7-1.84,0-2.53-.7-.7-1.83-.7-2.53,0l-1.38,1.38-1.38-1.38c-.7-.7-1.83-.7-2.53,0-.7.7-.7,1.83,0,2.53l1.38,1.38-1.38,1.38c-.7.7-.7,1.84,0,2.53.35.35.81.52,1.27.52s.92-.17,1.27-.52l1.38-1.38,1.38,1.38c.35.35.81.52,1.27.52s.92-.17,1.27-.52c.7-.7.7-1.83,0-2.53l-1.38-1.38Z"/>
        <path class="cls-2" d="m82.44,52.15l1.38-1.38c.7-.7.7-1.84,0-2.53-.7-.7-1.83-.7-2.53,0l-1.38,1.38-1.38-1.38c-.7-.7-1.83-.7-2.53,0-.7.7-.7,1.83,0,2.53l1.38,1.38-1.38,1.38c-.7.7-.7,1.84,0,2.53.35.35.81.52,1.27.52s.92-.17,1.27-.52l1.38-1.38,1.38,1.38c.35.35.81.52,1.27.52s.92-.17,1.27-.52c.7-.7.7-1.83,0-2.53l-1.38-1.38Z"/>
      </g>
    </g>
  </g>
</svg>