<?xml version="1.0" encoding="UTF-8"?>
<svg id="Capa_2" data-name="Capa 2" xmlns="http://www.w3.org/2000/svg" viewBox="0 0 99.16 146.71">
  <defs>
    <style>
      .cls-1 {
        fill: #87be3f;
      }

      .cls-1, .cls-2 {
        stroke-width: 0px;
      }

      .cls-2 {
        fill: #fff;
      }
    </style>
  </defs>
  <g id="Capa_1-2" data-name="Capa 1">
    <g>
      <g>
        <path class="cls-2" d="m1.15,146.34v-14.46h3.84l3.63,8.64h.36l3.61-8.64h3.9v14.46h-2.79v-12.34l.36.04-3.9,9.35h-2.87l-3.92-9.35.38-.04v12.34H1.15Z"/>
        <path class="cls-2" d="m23.5,146.67c-1.25,0-2.22-.41-2.89-1.22s-1.01-2.03-1.01-3.66v-6.24h2.75v6.48c0,.66.18,1.19.55,1.58.37.39.87.58,1.51.58s1.15-.21,1.55-.61c.4-.41.6-.96.6-1.67v-6.36h2.75v10.78h-2.18v-4.58h.22c0,1.1-.14,2.01-.43,2.73-.28.73-.7,1.27-1.25,1.63-.55.36-1.24.54-2.07.54h-.12Z"/>
        <path class="cls-2" d="m31.29,133.93v-2.06h4.1v2.06h-4.1Zm1.35,12.4v-14.46h2.75v14.46h-2.75Z"/>
        <path class="cls-2" d="m37.15,137.6v-2.02h7.61v2.02h-7.61Zm6.06,8.88c-1,0-1.83-.13-2.47-.39-.64-.26-1.12-.69-1.43-1.31-.31-.61-.47-1.44-.47-2.49v-9.75h2.6l-.02,9.93c0,.53.14.93.43,1.22.28.28.69.43,1.22.43h1.68v2.36h-1.54Z"/>
        <path class="cls-2" d="m46.09,137.64v-2.06h4.26v2.06h-4.26Zm2.52-3.35c-.54,0-.94-.14-1.2-.42-.26-.28-.39-.64-.39-1.09s.13-.79.39-1.07c.26-.28.66-.42,1.2-.42s.94.14,1.19.42c.25.28.38.63.38,1.07s-.13.81-.38,1.09c-.25.28-.65.42-1.19.42Zm-1.01,12.05v-10.76h2.75v10.76h-2.75Z"/>
        <path class="cls-2" d="m57.19,146.67c-1.26,0-2.22-.41-2.89-1.22-.67-.81-1.01-2.03-1.01-3.66v-6.24h2.75v6.48c0,.66.19,1.19.55,1.58.37.39.87.58,1.51.58s1.15-.21,1.56-.61c.4-.41.6-.96.6-1.67v-6.36h2.75v10.78h-2.18v-4.58h.22c0,1.1-.14,2.01-.43,2.73-.29.73-.7,1.27-1.25,1.63-.55.36-1.24.54-2.07.54h-.12Z"/>
        <path class="cls-2" d="m70.08,146.67c-1.48,0-2.64-.31-3.48-.94s-1.28-1.5-1.34-2.61h2.5c.04.37.24.71.61,1.01s.95.46,1.74.46c.65,0,1.17-.12,1.57-.36.4-.24.59-.56.59-.97,0-.34-.15-.62-.45-.83-.3-.21-.81-.36-1.54-.44l-.93-.1c-1.22-.12-2.15-.46-2.79-1.02-.65-.56-.97-1.3-.97-2.23,0-.74.19-1.36.55-1.86.37-.5.88-.88,1.54-1.14s1.41-.39,2.27-.39c1.32,0,2.39.29,3.21.87s1.25,1.44,1.29,2.58h-2.48c-.04-.38-.23-.71-.56-.97-.34-.26-.83-.4-1.48-.4-.58,0-1.03.11-1.35.34-.32.22-.48.51-.48.87s.13.61.39.79c.26.18.68.31,1.26.38l.95.1c1.27.13,2.26.48,2.98,1.05.72.57,1.08,1.33,1.08,2.3,0,.71-.2,1.33-.58,1.86-.39.53-.93.93-1.63,1.22-.7.28-1.53.43-2.48.43Z"/>
        <path class="cls-2" d="m82.23,146.71c-.95,0-1.79-.15-2.52-.46s-1.34-.71-1.84-1.23c-.5-.52-.88-1.1-1.14-1.76-.26-.66-.39-1.35-.39-2.08v-.42c0-.74.13-1.44.4-2.11.26-.67.65-1.26,1.16-1.78.51-.52,1.13-.93,1.86-1.23s1.56-.45,2.47-.45,1.73.15,2.46.45,1.34.71,1.85,1.23c.51.52.89,1.12,1.16,1.78.26.67.4,1.37.4,2.11v.42c0,.73-.13,1.42-.39,2.08-.26.66-.64,1.25-1.14,1.76-.5.51-1.12.92-1.84,1.23-.73.3-1.56.46-2.5.46Zm0-2.36c.66,0,1.22-.15,1.68-.45.46-.3.81-.7,1.06-1.21.24-.51.37-1.09.37-1.73s-.12-1.23-.38-1.74c-.25-.51-.61-.92-1.07-1.22-.46-.3-1.02-.45-1.66-.45s-1.21.15-1.67.45c-.47.3-.83.7-1.08,1.22-.25.52-.38,1.1-.38,1.74s.12,1.22.37,1.73.6.91,1.06,1.21c.46.3,1.03.45,1.7.45Z"/>
        <path class="cls-2" d="m94.41,146.67c-1.48,0-2.64-.31-3.48-.94-.84-.63-1.29-1.5-1.34-2.61h2.5c.04.37.24.71.62,1.01.37.3.95.46,1.74.46.65,0,1.17-.12,1.57-.36.4-.24.59-.56.59-.97,0-.34-.15-.62-.45-.83-.3-.21-.81-.36-1.54-.44l-.93-.1c-1.21-.12-2.15-.46-2.79-1.02-.65-.56-.97-1.3-.97-2.23,0-.74.18-1.36.55-1.86s.88-.88,1.54-1.14c.65-.26,1.41-.39,2.27-.39,1.32,0,2.39.29,3.21.87.82.58,1.25,1.44,1.29,2.58h-2.48c-.04-.38-.23-.71-.56-.97-.34-.26-.83-.4-1.48-.4-.58,0-1.03.11-1.35.34-.32.22-.47.51-.47.87s.13.61.39.79c.26.18.68.31,1.26.38l.95.1c1.27.13,2.26.48,2.98,1.05.72.57,1.08,1.33,1.08,2.3,0,.71-.2,1.33-.58,1.86s-.93.93-1.63,1.22c-.7.28-1.53.43-2.48.43Z"/>
      </g>
      <path class="cls-1" d="m26.72,98.26c24.05-16.2,48.1-32.4,72.16-48.6L25.54,1.71c-.57,6.36.25,11.46,1.03,14.76,1.59,6.68,4.39,11.55,6.1,14.5.59,1.02,2.39,2.04,2.42,3.82.03,1.94-1.76,2.96-3.18,4.71-3.75,4.6-2.64,11.39-2.42,12.72,1.09,6.63,5.62,6.66,6.1,11.83.52,5.48-4.37,7.73-7.5,14.88-1.77,4.05-3.23,10.24-1.38,19.35Z"/>
      <g>
        <path class="cls-2" d="m98.69,48.39l-9.14-9.55c-.65-.68-1.73-.7-2.41-.05-.68.65-.7,1.73-.05,2.41l6.47,6.77h-23.09c-.4-5.02-2.56-9.54-5.87-12.95,5.85-8.73,9.26-18.7,9.98-29.13l5.74,6.15c.34.36.79.54,1.25.54.42,0,.83-.15,1.16-.46.69-.64.73-1.72.08-2.41L74.27.54s0,0,0,0c0,0,0,0,0,0,0,0-.01,0-.02-.02-.03-.03-.07-.06-.1-.08,0,0,0,0,0,0-.04-.04-.08-.08-.13-.11-.05-.04-.11-.07-.17-.1-.04-.02-.08-.05-.12-.07-.07-.03-.14-.05-.2-.07-.04-.01-.07-.03-.11-.03-.01,0-.02,0-.03,0,0,0,0,0-.01,0-.06-.01-.12-.02-.18-.02-.03,0-.07-.01-.1-.01h-.04s0,0,0,0c-.02,0-.05,0-.07,0-.03,0-.07,0-.1,0-.03,0-.07,0-.1,0-.02,0-.03,0-.05,0-.04,0-.08.02-.13.03-.01,0-.03,0-.04.01-.04.01-.07.02-.11.03-.02,0-.03.01-.05.02-.05.02-.09.04-.14.07h0s-.08.04-.11.06c-.01,0-.02.02-.04.03-.05.03-.09.07-.14.11-.03.03-.07.04-.1.07,0,0,0,0,0,0,0,0,0,0-.01,0l-9.54,9.15c-.68.65-.7,1.73-.05,2.41.34.35.78.52,1.23.52s.85-.16,1.18-.48l6.49-6.23c-.7,9.62-3.82,18.81-9.15,26.89-3.48-2.58-7.77-4.13-12.43-4.13s-8.95,1.55-12.43,4.13c-5.33-8.08-8.45-17.27-9.15-26.89l6.49,6.23c.33.32.76.48,1.18.48.45,0,.9-.18,1.23-.52.65-.68.63-1.76-.05-2.41L27.32.48s0,0-.01,0c0,0,0,0,0,0-.03-.03-.06-.04-.09-.07-.05-.04-.09-.08-.15-.11-.01,0-.02-.02-.03-.02-.04-.02-.08-.04-.11-.06-.05-.03-.1-.05-.15-.07-.01,0-.02-.01-.04-.02-.04-.02-.09-.02-.13-.04-.05-.01-.1-.03-.15-.04-.01,0-.03,0-.04,0-.04,0-.09,0-.13-.01-.01,0-.02,0-.04,0-.04,0-.07-.01-.11-.01,0,0,0,0-.02,0-.01,0-.02,0-.03,0-.04,0-.08,0-.12.01-.03,0-.07,0-.1.01-.03,0-.06,0-.08,0,0,0-.02,0-.03,0-.04,0-.07.02-.11.04-.04.01-.08.02-.12.04-.02,0-.04.01-.06.02,0,0-.01,0-.02,0-.04.02-.08.04-.12.07-.01,0-.03.01-.04.02-.04.02-.08.04-.11.06,0,0-.01,0-.02.01-.04.03-.07.06-.1.09-.05.04-.09.07-.14.12,0,0,0,0-.01.01,0,0,0,0,0,0,0,0,0,0-.01,0l-8.54,9.15c-.64.69-.61,1.77.08,2.41.33.31.75.46,1.16.46.46,0,.91-.18,1.25-.54l5.74-6.15c.72,10.44,4.13,20.41,9.98,29.13-3.31,3.41-5.46,7.94-5.87,12.95H5.6l6.47-6.77c.65-.68.63-1.76-.05-2.41-.68-.65-1.76-.63-2.41.05L.47,48.39c-.34.36-.49.82-.47,1.28-.03.46.12.92.47,1.28l9.14,9.55c.34.35.78.53,1.23.53.42,0,.85-.16,1.18-.47.68-.65.7-1.73.05-2.41l-6.47-6.76h23.09c.4,5.02,2.56,9.54,5.87,12.95-5.85,8.73-9.26,18.7-9.98,29.13l-5.74-6.15c-.64-.69-1.72-.72-2.41-.08-.69.64-.73,1.72-.08,2.41l8.54,9.15s0,0,0,0,0,0,0,0c0,0,0,0,.01.01.05.05.11.1.17.14.03.02.05.05.08.07,0,0,0,0,.01,0,.07.05.15.09.23.12.02,0,.04.02.06.03,0,0,0,0,0,0,.05.02.09.03.14.04.06.02.12.04.18.06,0,0,0,0,0,0,.11.02.22.03.34.03h0c.11,0,.21-.01.31-.03,0,0,0,0,.02,0,.04,0,.08-.02.12-.04.06-.02.11-.03.17-.05,0,0,.02,0,.02-.01.05-.02.09-.04.13-.07.04-.02.09-.04.13-.07,0,0,.02-.01.03-.02.05-.03.09-.07.13-.1.03-.03.07-.05.1-.08,0,0,0,0,0,0,0,0,0,0,.01,0l9.54-9.15c.68-.65.7-1.73.05-2.41-.65-.68-1.73-.7-2.41-.05l-6.49,6.23c.7-9.62,3.82-18.81,9.15-26.89,3.48,2.58,7.77,4.13,12.43,4.13s8.95-1.55,12.43-4.13c5.33,8.08,8.45,17.27,9.15,26.89l-6.49-6.23c-.68-.65-1.76-.63-2.41.05-.65.68-.63,1.76.05,2.41l9.54,9.15s0,0,.01,0c0,0,0,0,0,0,.03.03.06.05.09.07.05.04.09.08.14.11,0,0,.02.01.03.02.04.03.08.04.12.06.05.02.09.05.14.07,0,0,.02,0,.02.01.05.02.11.03.16.05.04.01.09.03.13.04,0,0,0,0,.01,0,.1.02.21.03.31.03h0c.11,0,.23-.01.34-.03,0,0,0,0,0,0,.07-.01.13-.04.2-.06.04-.01.08-.02.12-.04,0,0,0,0,0,0,.03-.01.06-.04.09-.05.07-.03.13-.07.2-.11,0,0,0,0,0,0,.03-.02.06-.06.1-.08.05-.04.11-.08.15-.13,0,0,.01,0,.02-.01,0,0,0,0,0,0s0,0,0,0l8.54-9.15c.64-.69.61-1.77-.08-2.41-.69-.64-1.77-.61-2.41.08l-5.74,6.15c-.72-10.43-4.13-20.4-9.98-29.13,3.31-3.41,5.46-7.94,5.87-12.95h23.09l-6.47,6.76c-.65.68-.63,1.76.05,2.41.33.32.76.47,1.18.47.45,0,.9-.18,1.23-.53l9.14-9.55c.34-.36.49-.82.47-1.28.03-.46-.12-.92-.47-1.28Zm-66.67,1.28c0-9.72,7.88-17.64,17.56-17.64s17.56,7.91,17.56,17.63c0,0,0,0,0,0s0,0,0,0c0,9.72-7.88,17.63-17.56,17.63s-17.56-7.91-17.56-17.64Z"/>
        <path class="cls-2" d="m54.39,44.56l-6.46,5.25-3.17-2.58c-.73-.59-1.81-.48-2.4.25-.59.73-.48,1.81.25,2.4l5.32,4.32,8.61-7c.73-.6.84-1.67.25-2.4-.59-.73-1.67-.84-2.4-.25Z"/>
      </g>
    </g>
  </g>
</svg>