<?xml version="1.0" encoding="UTF-8"?>
<svg id="Capa_2" data-name="Capa 2" xmlns="http://www.w3.org/2000/svg" viewBox="0 0 101.61 133.53">
  <defs>
    <style>
      .cls-1 {
        fill: #87be3f;
      }

      .cls-1, .cls-2 {
        stroke-width: 0px;
      }

      .cls-2 {
        fill: #fff;
      }
    </style>
  </defs>
  <g id="Capa_1-2" data-name="Capa 1">
    <g>
      <polygon class="cls-1" points="50.83 50.76 2.75 98.84 2.8 2.73 50.83 50.76"/>
      <g>
        <g>
          <path class="cls-2" d="m5.96,129.47v-14.82h2.82v14.82h-2.82Zm2.42-12.38v-2.44h6.56v2.44h-6.56Zm0,6.07v-2.44h6.19v2.44h-6.19Zm0,6.31v-2.44h6.72v2.44h-6.72Z"/>
          <path class="cls-2" d="m21.84,129.82c-1.52,0-2.7-.32-3.56-.96-.86-.64-1.32-1.53-1.37-2.67h2.56c.04.38.25.72.63,1.04s.97.47,1.79.47c.66,0,1.2-.12,1.6-.37.41-.24.61-.58.61-1,0-.35-.15-.64-.46-.85-.31-.22-.83-.37-1.57-.45l-.95-.1c-1.25-.12-2.2-.47-2.86-1.05-.66-.58-.99-1.34-.99-2.28,0-.76.19-1.39.57-1.91.38-.51.9-.9,1.57-1.17.67-.26,1.44-.4,2.32-.4,1.35,0,2.45.3,3.29.89.84.6,1.28,1.48,1.32,2.64h-2.54c-.04-.39-.23-.72-.58-.99-.35-.27-.85-.41-1.51-.41-.6,0-1.06.12-1.38.35-.32.23-.49.53-.49.89s.13.62.4.81c.26.19.69.32,1.29.39l.97.1c1.3.14,2.32.49,3.05,1.08.74.58,1.11,1.37,1.11,2.35,0,.73-.2,1.37-.6,1.91-.4.54-.96.96-1.67,1.25-.72.29-1.56.44-2.54.44Z"/>
          <path class="cls-2" d="m28.98,133.53v-15.08h2.23v4.75l-.35-.02c.05-1.12.29-2.06.7-2.82.41-.76.96-1.32,1.65-1.69s1.46-.56,2.32-.56c.78,0,1.49.14,2.12.43.63.28,1.17.68,1.62,1.2.45.51.8,1.11,1.05,1.8.24.68.36,1.42.36,2.2v.43c0,.8-.12,1.54-.35,2.23-.24.69-.58,1.29-1.04,1.81s-1,.92-1.63,1.21-1.35.44-2.13.44c-.83,0-1.58-.17-2.26-.52-.68-.35-1.24-.88-1.65-1.6-.42-.72-.66-1.65-.71-2.79l.89,1.34v7.27h-2.82Zm5.85-6.07c.6,0,1.12-.15,1.58-.45s.81-.71,1.07-1.25c.25-.53.38-1.14.38-1.82s-.13-1.3-.38-1.82c-.25-.52-.6-.93-1.06-1.22-.45-.29-.98-.44-1.59-.44-.56,0-1.07.13-1.53.38-.47.25-.85.61-1.14,1.08s-.44,1.03-.44,1.69v.81c0,.64.15,1.18.45,1.62.3.45.68.79,1.16,1.04.47.24.97.37,1.5.37Z"/>
          <path class="cls-2" d="m46.93,129.82c-1.29,0-2.27-.42-2.96-1.25-.69-.83-1.04-2.08-1.04-3.75v-6.39h2.82v6.64c0,.68.19,1.22.57,1.61.38.4.89.6,1.54.6s1.18-.21,1.59-.63c.41-.42.62-.99.62-1.71v-6.52h2.82v11.04h-2.23v-4.69h.22c0,1.12-.15,2.06-.44,2.8-.29.74-.72,1.3-1.28,1.67-.56.37-1.27.56-2.12.56h-.12Z"/>
          <path class="cls-2" d="m56.14,129.47v-11.02h2.23v4.73h-.2c0-1.11.14-2.04.43-2.79.28-.75.71-1.32,1.27-1.7.56-.39,1.26-.58,2.1-.58h.12c.85,0,1.56.19,2.12.58.56.39.98.95,1.26,1.7.28.75.42,1.68.42,2.79h-.71c0-1.11.15-2.04.44-2.79.29-.75.72-1.32,1.28-1.7.56-.39,1.26-.58,2.1-.58h.12c.85,0,1.56.19,2.13.58s1,.95,1.29,1.7c.29.75.44,1.68.44,2.79v6.29h-2.82v-6.54c0-.7-.18-1.26-.54-1.67-.36-.41-.86-.62-1.49-.62s-1.17.21-1.56.64c-.39.43-.59,1-.59,1.74v6.46h-2.82v-6.54c0-.7-.18-1.26-.54-1.67-.36-.41-.86-.62-1.49-.62s-1.17.21-1.56.64c-.39.43-.59,1-.59,1.74v6.46h-2.82Z"/>
          <path class="cls-2" d="m79.1,129.76c-.8,0-1.5-.14-2.09-.43-.6-.28-1.06-.69-1.39-1.22s-.5-1.16-.5-1.91c0-.81.2-1.47.59-1.99.39-.51.95-.9,1.68-1.16.73-.26,1.58-.39,2.56-.39h2.54v1.71h-2.58c-.65,0-1.15.16-1.49.47-.35.31-.52.72-.52,1.22s.17.91.52,1.22.84.47,1.49.47c.39,0,.75-.07,1.09-.21.33-.14.61-.39.82-.73s.34-.82.37-1.41l.69.79c-.07.77-.25,1.42-.56,1.95-.31.53-.72.93-1.26,1.21-.54.28-1.19.42-1.96.42Zm3.55-.28v-3.27h-.47v-3.63c0-.62-.16-1.09-.47-1.41-.31-.32-.79-.48-1.42-.48-.34,0-.74,0-1.22.02-.47.01-.95.03-1.43.05-.48.02-.91.04-1.29.07v-2.4c.31-.03.66-.05,1.05-.08.39-.03.79-.04,1.21-.05.42,0,.81-.01,1.18-.01,1.14,0,2.08.15,2.83.45.75.3,1.32.77,1.7,1.41.39.64.58,1.48.58,2.51v6.82h-2.25Z"/>
          <path class="cls-2" d="m91.93,129.82c-1.51,0-2.7-.32-3.56-.96-.86-.64-1.32-1.53-1.37-2.67h2.56c.04.38.25.72.63,1.04.38.31.97.47,1.79.47.66,0,1.2-.12,1.6-.37s.61-.58.61-1c0-.35-.15-.64-.46-.85-.3-.22-.83-.37-1.57-.45l-.95-.1c-1.24-.12-2.2-.47-2.86-1.05s-.99-1.34-.99-2.28c0-.76.19-1.39.57-1.91.38-.51.9-.9,1.57-1.17.67-.26,1.44-.4,2.32-.4,1.35,0,2.45.3,3.29.89.84.6,1.28,1.48,1.32,2.64h-2.54c-.04-.39-.23-.72-.58-.99s-.85-.41-1.51-.41c-.6,0-1.05.12-1.38.35-.32.23-.49.53-.49.89s.13.62.4.81c.26.19.69.32,1.29.39l.97.1c1.3.14,2.32.49,3.05,1.08.74.58,1.11,1.37,1.11,2.35,0,.73-.2,1.37-.6,1.91s-.96.96-1.67,1.25c-.72.29-1.56.44-2.54.44Z"/>
        </g>
        <path class="cls-2" d="m92.37,101.77H0V9.24C0,4.14,4.15,0,9.24,0h92.37v92.53c0,5.1-4.14,9.24-9.24,9.24Zm-88.87-3.5h88.87c3.17,0,5.74-2.58,5.74-5.74V3.5H9.24c-3.17,0-5.74,2.58-5.74,5.74v89.04Z"/>
        <path class="cls-2" d="m50.77,21.47c-2.85,0-5.16-2.32-5.16-5.16s2.32-5.16,5.16-5.16,5.16,2.32,5.16,5.16-2.32,5.16-5.16,5.16Zm0-6.83c-.92,0-1.67.75-1.67,1.67s.75,1.67,1.67,1.67,1.67-.75,1.67-1.67-.75-1.67-1.67-1.67Z"/>
        <path class="cls-2" d="m60.1,45.37c-2.85,0-5.16-2.32-5.16-5.16s2.32-5.16,5.16-5.16,5.16,2.32,5.16,5.16-2.32,5.16-5.16,5.16Zm0-6.83c-.92,0-1.67.75-1.67,1.67s.75,1.67,1.67,1.67,1.67-.75,1.67-1.67-.75-1.67-1.67-1.67Z"/>
        <path class="cls-2" d="m85.5,49.19c-2.85,0-5.16-2.32-5.16-5.16s2.32-5.16,5.16-5.16,5.16,2.32,5.16,5.16-2.32,5.16-5.16,5.16Zm0-6.83c-.92,0-1.67.75-1.67,1.67s.75,1.67,1.67,1.67,1.67-.75,1.67-1.67-.75-1.67-1.67-1.67Z"/>
        <path class="cls-2" d="m85.46,21.35c-2.85,0-5.16-2.32-5.16-5.16s2.32-5.16,5.16-5.16,5.16,2.32,5.16,5.16-2.32,5.16-5.16,5.16Zm0-6.83c-.92,0-1.67.75-1.67,1.67s.75,1.67,1.67,1.67,1.67-.75,1.67-1.67-.75-1.67-1.67-1.67Z"/>
        <circle class="cls-2" cx="74" cy="27.66" r="3.41"/>
        <circle class="cls-2" cx="85.91" cy="66.33" r="3.41"/>
        <path class="cls-2" d="m21.11,82.65c-1.38,0-2.68-.54-3.65-1.51-.97-.97-1.51-2.27-1.51-3.65s.54-2.67,1.51-3.65c.97-.98,2.27-1.51,3.65-1.51s2.67.54,3.65,1.51h0c.97.97,1.51,2.27,1.51,3.65s-.54,2.67-1.51,3.65c-.97.98-2.27,1.51-3.65,1.51Zm0-6.83c-.44,0-.86.17-1.18.49-.32.32-.49.73-.49,1.18s.17.86.49,1.18c.63.63,1.73.63,2.35,0,.32-.32.49-.73.49-1.18s-.17-.86-.49-1.18h0c-.31-.32-.73-.49-1.18-.49Z"/>
        <path class="cls-2" d="m44.61,92.95c-1.32,0-2.64-.5-3.65-1.51-2.01-2.01-2.01-5.29,0-7.3,2.01-2.01,5.29-2.01,7.3,0h0c2.01,2.01,2.01,5.29,0,7.3-1.01,1.01-2.33,1.51-3.65,1.51Zm0-6.82c-.43,0-.85.16-1.18.49-.65.65-.65,1.71,0,2.36.65.65,1.71.65,2.35,0,.65-.65.65-1.71,0-2.36-.32-.32-.75-.49-1.18-.49Z"/>
        <path class="cls-2" d="m65.27,77.69c-1.32,0-2.64-.5-3.65-1.51-2.01-2.01-2.01-5.29,0-7.3,2.01-2.01,5.29-2.01,7.3,0h0c2.01,2.01,2.01,5.29,0,7.3-1.01,1.01-2.33,1.51-3.65,1.51Zm0-6.82c-.43,0-.85.16-1.18.49-.65.65-.65,1.71,0,2.36.65.65,1.71.65,2.35,0,.65-.65.65-1.71,0-2.36-.32-.32-.75-.49-1.18-.49Z"/>
        <path class="cls-2" d="m45.56,58.04c-1.32,0-2.64-.5-3.65-1.51-2.01-2.01-2.01-5.29,0-7.3,2.01-2.01,5.29-2.01,7.3,0h0c2.01,2.01,2.01,5.29,0,7.3-1.01,1.01-2.33,1.51-3.65,1.51Zm0-6.82c-.43,0-.85.16-1.18.49-.65.65-.65,1.71,0,2.36.65.65,1.71.65,2.36,0,.65-.65.65-1.71,0-2.36h0c-.32-.32-.75-.49-1.18-.49Z"/>
        <circle class="cls-2" cx="45.56" cy="69.09" r="3.41"/>
        <circle class="cls-2" cx="81.33" cy="88.01" r="3.41"/>
        <path class="cls-2" d="m16.09,21.38c-1.38,0-2.67-.54-3.65-1.51-.97-.97-1.51-2.27-1.51-3.65s.54-2.67,1.51-3.65c.97-.97,2.27-1.51,3.65-1.51s2.68.54,3.65,1.51c.97.97,1.51,2.27,1.51,3.65s-.54,2.67-1.51,3.65h0c-.98.98-2.27,1.51-3.65,1.51Zm0-6.83c-.44,0-.86.17-1.18.49-.32.32-.49.73-.49,1.18s.17.86.49,1.18c.63.63,1.73.63,2.36,0h0c.31-.32.49-.73.49-1.18s-.17-.86-.49-1.18c-.32-.32-.73-.49-1.18-.49Z"/>
        <path class="cls-2" d="m27.03,46.02c-1.38,0-2.77-.53-3.82-1.58-2.11-2.11-2.11-5.54,0-7.65,2.11-2.11,5.54-2.11,7.65,0,2.11,2.11,2.11,5.54,0,7.65h0c-1.05,1.05-2.44,1.58-3.82,1.58Zm0-6.82c-.36,0-.73.14-1.01.42-.55.55-.55,1.46,0,2.01.55.55,1.46.55,2.01,0,.55-.56.55-1.46,0-2.01-.28-.28-.64-.42-1-.42Z"/>
        <circle class="cls-2" cx="38.2" cy="27.66" r="3.41"/>
        <circle class="cls-2" cx="15.87" cy="57.77" r="3.41"/>
      </g>
    </g>
  </g>
</svg>