<?xml version="1.0" encoding="UTF-8"?>
<svg id="Capa_2" data-name="Capa 2" xmlns="http://www.w3.org/2000/svg" viewBox="0 0 140.2 145.9">
  <defs>
    <style>
      .cls-1 {
        fill: #87be3f;
      }

      .cls-1, .cls-2 {
        stroke-width: 0px;
      }

      .cls-2 {
        fill: #fff;
      }
    </style>
  </defs>
  <g id="Capa_1-2" data-name="Capa 1">
    <g>
      <g>
        <path class="cls-2" d="m0,145.53v-14.46h3.84l3.63,8.64h.36l3.61-8.64h3.9v14.46h-2.79v-12.34l.36.04-3.9,9.35h-2.87l-3.92-9.35.38-.04v12.34H0Z"/>
        <path class="cls-2" d="m21.72,145.8c-.78,0-1.46-.14-2.04-.42-.58-.28-1.03-.67-1.36-1.19-.32-.52-.48-1.14-.48-1.86,0-.79.19-1.44.57-1.94s.93-.88,1.64-1.13,1.54-.38,2.5-.38h2.48v1.66h-2.52c-.63,0-1.12.15-1.46.46-.34.3-.5.7-.5,1.19s.17.89.5,1.19c.34.3.82.46,1.46.46.38,0,.74-.07,1.06-.21s.59-.38.8-.71c.21-.34.33-.8.36-1.38l.67.77c-.07.75-.25,1.39-.54,1.9-.3.51-.71.91-1.23,1.18s-1.16.41-1.91.41Zm3.47-.28v-3.19h-.46v-3.55c0-.61-.15-1.07-.46-1.38-.3-.31-.77-.47-1.39-.47-.33,0-.73,0-1.19.02-.46.01-.93.03-1.4.05-.47.02-.89.04-1.26.07v-2.34c.3-.03.64-.05,1.02-.08.38-.03.77-.04,1.18-.05s.79,0,1.15,0c1.11,0,2.03.15,2.76.44.73.29,1.29.75,1.66,1.38.38.63.57,1.44.57,2.45v6.66h-2.2Z"/>
        <path class="cls-2" d="m30.33,145.53v-10.76h2.18v4.62h-.2c0-1.1.15-2.01.44-2.74.29-.73.72-1.28,1.3-1.65.57-.37,1.29-.55,2.15-.55h.12c1.28,0,2.25.41,2.91,1.24.66.83.99,2.06.99,3.7v6.16h-2.75v-6.4c0-.66-.19-1.2-.57-1.61-.38-.41-.9-.61-1.55-.61s-1.22.21-1.63.63c-.42.42-.62.98-.62,1.67v6.32h-2.75Z"/>
        <path class="cls-2" d="m46.84,145.86c-1.25,0-2.22-.41-2.89-1.22s-1.01-2.03-1.01-3.66v-6.24h2.75v6.48c0,.66.18,1.19.55,1.58.37.39.87.58,1.51.58s1.15-.21,1.55-.61c.4-.41.6-.96.6-1.67v-6.36h2.75v10.78h-2.18v-4.58h.22c0,1.1-.14,2.01-.43,2.73-.28.73-.7,1.27-1.25,1.63-.55.36-1.24.54-2.07.54h-.12Z"/>
        <path class="cls-2" d="m58.87,145.8c-.78,0-1.46-.14-2.04-.42-.58-.28-1.03-.67-1.36-1.19-.32-.52-.48-1.14-.48-1.86,0-.79.19-1.44.57-1.94s.93-.88,1.64-1.13,1.54-.38,2.5-.38h2.48v1.66h-2.52c-.63,0-1.12.15-1.46.46-.34.3-.5.7-.5,1.19s.17.89.5,1.19c.34.3.82.46,1.46.46.38,0,.74-.07,1.06-.21s.59-.38.8-.71c.21-.34.33-.8.36-1.38l.67.77c-.07.75-.25,1.39-.54,1.9-.3.51-.71.91-1.23,1.18s-1.16.41-1.91.41Zm3.47-.28v-3.19h-.46v-3.55c0-.61-.15-1.07-.46-1.38-.3-.31-.77-.47-1.39-.47-.33,0-.73,0-1.19.02-.46.01-.93.03-1.4.05-.47.02-.89.04-1.26.07v-2.34c.3-.03.64-.05,1.02-.08.38-.03.77-.04,1.18-.05s.79,0,1.15,0c1.11,0,2.03.15,2.76.44.73.29,1.29.75,1.66,1.38.38.63.57,1.44.57,2.45v6.66h-2.2Z"/>
        <path class="cls-2" d="m66.28,133.12v-2.06h4.1v2.06h-4.1Zm1.35,12.4v-14.46h2.75v14.46h-2.75Z"/>
        <path class="cls-2" d="m72.54,136.83v-2.06h4.26v2.06h-4.26Zm2.52-3.35c-.54,0-.94-.14-1.2-.42-.26-.28-.39-.64-.39-1.09s.13-.79.39-1.07c.26-.28.66-.42,1.2-.42s.94.14,1.19.42c.25.28.38.63.38,1.07s-.13.81-.38,1.09c-.25.28-.65.42-1.19.42Zm-1.01,12.05v-10.76h2.75v10.76h-2.75Z"/>
        <path class="cls-2" d="m84.43,145.88c-.77,0-1.46-.14-2.09-.42s-1.17-.66-1.63-1.16c-.46-.5-.82-1.08-1.07-1.75-.25-.67-.38-1.4-.38-2.18v-.42c0-.77.12-1.49.36-2.16.24-.67.58-1.26,1.03-1.76.45-.5.98-.89,1.6-1.18.62-.28,1.31-.43,2.08-.43.84,0,1.59.18,2.24.54.65.36,1.16.91,1.54,1.63.38.73.58,1.64.62,2.73l-.81-.93v-7.35h2.77v14.46h-2.2v-4.56h.48c-.04,1.08-.26,1.99-.67,2.72-.41.73-.95,1.28-1.62,1.64-.67.36-1.42.54-2.25.54Zm.61-2.32c.54,0,1.03-.12,1.48-.37.44-.24.8-.6,1.07-1.07.27-.47.41-1.02.41-1.65v-.79c0-.62-.14-1.15-.42-1.58-.28-.44-.64-.77-1.09-1-.45-.23-.93-.35-1.45-.35-.59,0-1.12.15-1.58.44-.46.29-.81.69-1.07,1.2-.26.51-.39,1.11-.39,1.79s.13,1.29.4,1.79c.26.51.62.9,1.08,1.18s.97.42,1.56.42Z"/>
        <path class="cls-2" d="m96.85,145.8c-.78,0-1.46-.14-2.04-.42-.58-.28-1.03-.67-1.36-1.19-.32-.52-.48-1.14-.48-1.86,0-.79.19-1.44.57-1.94s.93-.88,1.64-1.13,1.54-.38,2.5-.38h2.48v1.66h-2.52c-.63,0-1.12.15-1.46.46-.34.3-.5.7-.5,1.19s.17.89.5,1.19c.34.3.82.46,1.46.46.38,0,.74-.07,1.06-.21s.59-.38.8-.71c.21-.34.33-.8.36-1.38l.67.77c-.07.75-.25,1.39-.54,1.9-.3.51-.71.91-1.23,1.18s-1.16.41-1.91.41Zm3.47-.28v-3.19h-.46v-3.55c0-.61-.15-1.07-.46-1.38-.3-.31-.77-.47-1.39-.47-.33,0-.73,0-1.19.02-.46.01-.93.03-1.4.05-.47.02-.89.04-1.26.07v-2.34c.3-.03.64-.05,1.02-.08.38-.03.77-.04,1.18-.05s.79,0,1.15,0c1.11,0,2.03.15,2.76.44.73.29,1.29.75,1.66,1.38.38.63.57,1.44.57,2.45v6.66h-2.2Z"/>
        <path class="cls-2" d="m109.93,145.88c-.77,0-1.46-.14-2.09-.42s-1.17-.66-1.63-1.16c-.46-.5-.82-1.08-1.07-1.75-.25-.67-.38-1.4-.38-2.18v-.42c0-.77.12-1.49.36-2.16.24-.67.58-1.26,1.03-1.76.45-.5.98-.89,1.6-1.18.62-.28,1.31-.43,2.08-.43.84,0,1.59.18,2.24.54.65.36,1.16.91,1.54,1.63.38.73.58,1.64.62,2.73l-.81-.93v-7.35h2.77v14.46h-2.2v-4.56h.48c-.04,1.08-.26,1.99-.67,2.72-.41.73-.95,1.28-1.62,1.64-.67.36-1.42.54-2.25.54Zm.61-2.32c.54,0,1.03-.12,1.48-.37.44-.24.8-.6,1.07-1.07.27-.47.41-1.02.41-1.65v-.79c0-.62-.14-1.15-.42-1.58-.28-.44-.64-.77-1.09-1-.45-.23-.93-.35-1.45-.35-.59,0-1.12.15-1.58.44-.46.29-.81.69-1.07,1.2-.26.51-.39,1.11-.39,1.79s.13,1.29.4,1.79c.26.51.62.9,1.08,1.18s.97.42,1.56.42Z"/>
        <path class="cls-2" d="m124.13,145.9c-.92,0-1.73-.16-2.43-.47-.69-.32-1.27-.74-1.72-1.28-.46-.54-.8-1.13-1.03-1.79-.23-.66-.35-1.33-.35-2.02v-.38c0-.71.12-1.4.35-2.07.23-.67.57-1.26,1.02-1.78.45-.52,1.01-.94,1.69-1.25.68-.31,1.46-.47,2.35-.47,1.16,0,2.14.25,2.92.76.79.51,1.38,1.18,1.77,2s.59,1.71.59,2.67v1.01h-9.53v-1.7h7.79l-.83.83c0-.69-.1-1.27-.31-1.76-.21-.49-.51-.87-.9-1.13-.4-.26-.9-.4-1.51-.4s-1.12.14-1.54.43c-.42.28-.74.68-.96,1.2-.22.52-.33,1.14-.33,1.86,0,.67.11,1.27.32,1.79.21.52.54.93.97,1.23.44.3.99.45,1.66.45s1.2-.13,1.62-.41c.42-.27.69-.6.81-1h2.56c-.16.74-.46,1.39-.91,1.94s-1.02.98-1.71,1.29c-.69.3-1.48.46-2.37.46Z"/>
        <path class="cls-2" d="m135.5,145.86c-1.48,0-2.64-.31-3.48-.94s-1.28-1.5-1.34-2.61h2.5c.04.37.24.71.61,1.01s.95.46,1.74.46c.65,0,1.17-.12,1.57-.36.4-.24.59-.56.59-.97,0-.34-.15-.62-.45-.83-.3-.21-.81-.36-1.54-.44l-.93-.1c-1.22-.12-2.15-.46-2.79-1.02-.65-.56-.97-1.3-.97-2.23,0-.74.19-1.36.55-1.86.37-.5.88-.88,1.54-1.14s1.41-.39,2.27-.39c1.32,0,2.39.29,3.21.87s1.25,1.44,1.29,2.58h-2.48c-.04-.38-.23-.71-.56-.97-.34-.26-.83-.4-1.48-.4-.58,0-1.03.11-1.35.34-.32.22-.48.51-.48.87s.13.61.39.79c.26.18.68.31,1.26.38l.95.1c1.27.13,2.26.48,2.98,1.05.72.57,1.08,1.33,1.08,2.3,0,.71-.2,1.33-.58,1.86-.39.53-.93.93-1.63,1.22-.7.28-1.53.43-2.48.43Z"/>
      </g>
      <path class="cls-1" d="m117.02,96.74l-16.59-16.59-30.87-30.87L117.93.98s-1.48,96.33-.91,95.76"/>
      <g>
        <path class="cls-2" d="m28.01,0c-4.09,0-7.42,3.33-7.42,7.42v91.31h91.17c4.17,0,7.56-3.39,7.56-7.56V0H28.01Zm87.9,91.17c0,2.29-1.86,4.15-4.15,4.15H24V7.42c0-2.21,1.8-4.01,4.01-4.01h87.9v87.76Z"/>
        <path class="cls-2" d="m55.3,61.47c-2.13-1.64-4.79-2.62-7.68-2.62-6.98,0-12.65,5.68-12.65,12.65s5.68,12.66,12.65,12.66,12.65-5.68,12.65-12.66c0-2.89-.98-5.55-2.62-7.68.11-.07.21-.14.3-.23l11.57-11.57,27.99,27.99c.33.33.77.5,1.21.5s.87-.17,1.21-.5c.67-.67.67-1.75,0-2.41l-27.99-27.99,27.99-27.99c.67-.67.67-1.75,0-2.41s-1.75-.67-2.41,0l-27.99,27.99-11.57-11.57c-.09-.09-.19-.17-.3-.24,1.64-2.13,2.62-4.79,2.62-7.68,0-6.98-5.68-12.65-12.65-12.65s-12.65,5.68-12.65,12.65,5.68,12.65,12.65,12.65c2.89,0,5.55-.98,7.68-2.62.07.11.14.21.23.3l11.57,11.57-11.57,11.57c-.09.09-.17.19-.23.3Zm-7.68-24.52c-5.1,0-9.24-4.15-9.24-9.24s4.15-9.24,9.24-9.24,9.24,4.15,9.24,9.24-4.15,9.24-9.24,9.24Zm0,43.79c-5.1,0-9.24-4.15-9.24-9.24s4.15-9.24,9.24-9.24,9.24,4.15,9.24,9.24-4.15,9.24-9.24,9.24Z"/>
      </g>
    </g>
  </g>
</svg>