<?xml version="1.0" encoding="UTF-8"?>
<svg id="Capa_2" data-name="Capa 2" xmlns="http://www.w3.org/2000/svg" viewBox="0 0 96.33 150.53">
  <defs>
    <style>
      .cls-1 {
        fill: #87be3f;
      }

      .cls-1, .cls-2 {
        stroke-width: 0px;
      }

      .cls-2 {
        fill: #fff;
      }
    </style>
  </defs>
  <g id="Capa_1-2" data-name="Capa 1">
    <g>
      <g>
        <path class="cls-2" d="m18.52,146.27v-14.46h2.81v14.46h-2.81Zm2.3-6v-2.48h7.71v2.48h-7.71Zm7.19,6v-14.46h2.81v14.46h-2.81Z"/>
        <path class="cls-2" d="m39.35,146.65c-.95,0-1.79-.15-2.52-.46s-1.34-.71-1.84-1.23c-.5-.52-.88-1.1-1.14-1.76-.26-.66-.39-1.35-.39-2.08v-.42c0-.74.13-1.44.4-2.11s.65-1.26,1.16-1.78,1.13-.93,1.86-1.23c.73-.3,1.55-.45,2.47-.45s1.73.15,2.46.45,1.34.71,1.85,1.23c.51.52.89,1.12,1.16,1.78s.4,1.37.4,2.11v.42c0,.73-.13,1.42-.39,2.08-.26.66-.64,1.25-1.14,1.76-.5.51-1.12.92-1.84,1.23s-1.56.46-2.5.46Zm0-2.36c.66,0,1.22-.15,1.68-.45.46-.3.82-.7,1.06-1.21.24-.51.37-1.09.37-1.73s-.13-1.23-.38-1.74c-.25-.51-.61-.92-1.07-1.22-.46-.3-1.02-.45-1.66-.45s-1.21.15-1.67.45c-.47.3-.83.7-1.08,1.22-.25.52-.38,1.1-.38,1.74s.12,1.22.37,1.73c.24.51.6.91,1.06,1.21.46.3,1.03.45,1.71.45Z"/>
        <path class="cls-2" d="m51.81,150.53c-.51,0-1.04-.02-1.58-.06-.54-.04-1.03-.09-1.48-.16v-2.32c.46.05.97.1,1.52.15.55.05,1.05.07,1.52.07.9,0,1.62-.11,2.17-.32.55-.21.95-.54,1.2-1,.25-.46.38-1.03.38-1.73v-2.12l.59-1.35c-.03,1-.22,1.85-.59,2.54-.37.69-.87,1.21-1.51,1.58-.63.36-1.37.54-2.2.54-.74,0-1.41-.13-2.02-.41-.61-.27-1.13-.65-1.56-1.15-.43-.5-.76-1.07-.99-1.72-.23-.65-.35-1.36-.35-2.11v-.44c0-.75.12-1.46.37-2.11.24-.65.59-1.22,1.04-1.71.45-.49.98-.86,1.61-1.13.62-.26,1.31-.4,2.06-.4.87,0,1.63.19,2.29.57.65.38,1.17.94,1.55,1.67.38.73.58,1.62.6,2.67l-.47.08v-4.66h2.2v9.49c0,1.31-.22,2.37-.67,3.18s-1.14,1.41-2.07,1.78c-.93.38-2.13.56-3.6.56Zm.81-6.54c.53,0,1.01-.12,1.45-.36.44-.24.78-.58,1.04-1.03.26-.45.39-.99.39-1.62v-.67c0-.62-.13-1.14-.41-1.57s-.62-.74-1.06-.96c-.44-.22-.91-.33-1.41-.33-.58,0-1.09.14-1.54.41-.44.27-.79.65-1.04,1.15s-.38,1.07-.38,1.73.12,1.24.38,1.72c.25.49.6.87,1.04,1.13.44.26.96.4,1.54.4Z"/>
        <path class="cls-2" d="m64.19,146.55c-.78,0-1.46-.14-2.04-.42-.58-.28-1.03-.67-1.36-1.19-.32-.52-.49-1.14-.49-1.86,0-.79.19-1.44.58-1.94.38-.5.93-.88,1.64-1.13.71-.25,1.54-.38,2.5-.38h2.48v1.66h-2.52c-.63,0-1.12.15-1.46.46s-.51.7-.51,1.19.17.89.51,1.19.82.46,1.46.46c.38,0,.74-.07,1.06-.21.32-.14.59-.38.8-.71s.33-.8.36-1.38l.67.77c-.07.75-.25,1.39-.54,1.9-.3.51-.71.91-1.23,1.18-.52.27-1.16.41-1.91.41Zm3.47-.28v-3.19h-.46v-3.55c0-.61-.15-1.07-.46-1.38s-.77-.47-1.39-.47c-.33,0-.73,0-1.19.02-.46.01-.93.03-1.4.05-.47.02-.89.04-1.26.07v-2.34c.3-.03.64-.05,1.02-.08.38-.03.77-.04,1.18-.05.41,0,.79,0,1.15,0,1.11,0,2.03.15,2.76.44.73.29,1.29.75,1.66,1.38.38.63.56,1.44.56,2.45v6.66h-2.2Z"/>
        <path class="cls-2" d="m72.81,146.27v-10.76h2.18v4.56h-.06c0-1.53.33-2.7.99-3.5.66-.8,1.63-1.2,2.91-1.2h.4v2.4h-.75c-.92,0-1.64.25-2.15.75s-.76,1.22-.76,2.16v5.59h-2.75Z"/>
      </g>
      <polygon class="cls-1" points="48.22 34.94 48.22 0 96.33 34.94 48.22 34.94"/>
      <g>
        <path class="cls-2" d="m21.23,37.95c-4.92,0-8.92,4-8.92,8.92v51.22h62.05c4.92,0,8.92-4,8.92-8.92v-51.22H21.23Zm58.63,51.22c0,3.04-2.47,5.51-5.51,5.51h-15.99c2.19-2.15,3.55-5.15,3.55-8.46v-24.29h-19.14c-4.44,0-8.14,3.2-8.94,7.41-.1.22-.16.46-.16.72v19.98c0,.94.76,1.71,1.71,1.71s1.71-.76,1.71-1.71v-19.01c0-3.14,2.55-5.69,5.69-5.69h15.73v20.88c0,4.66-3.79,8.46-8.46,8.46H15.73v-47.81c0-3.04,2.47-5.51,5.51-5.51h58.63v47.81Z"/>
        <path class="cls-2" d="m44.81,34.21c0,.94.76,1.71,1.71,1.71s1.71-.76,1.71-1.71V0L.71,34.37c-.76.55-.93,1.62-.38,2.38.33.46.86.71,1.38.71.35,0,.7-.1,1-.32L44.81,6.68v27.53Z"/>
      </g>
    </g>
  </g>
</svg>