<?xml version="1.0" encoding="UTF-8"?>
<svg id="Capa_2" data-name="Capa 2" xmlns="http://www.w3.org/2000/svg" viewBox="0 0 99.22 124.75">
  <defs>
    <style>
      .cls-1 {
        fill: #87be3f;
      }

      .cls-1, .cls-2 {
        stroke-width: 0px;
      }

      .cls-2 {
        fill: #fff;
      }
    </style>
  </defs>
  <g id="Capa_1-2" data-name="Capa 1">
    <g>
      <g>
        <path class="cls-2" d="m7.94,124.37v-14.46h3.84l3.63,8.64h.36l3.61-8.64h3.9v14.46h-2.79v-12.34l.36.04-3.9,9.35h-2.87l-3.92-9.35.38-.04v12.34h-2.58Z"/>
        <path class="cls-2" d="m30.29,124.71c-1.25,0-2.22-.41-2.89-1.22-.67-.81-1.01-2.03-1.01-3.66v-6.24h2.75v6.48c0,.66.18,1.19.55,1.58.37.39.87.58,1.51.58s1.15-.21,1.55-.61c.4-.41.6-.96.6-1.66v-6.36h2.75v10.78h-2.18v-4.58h.22c0,1.1-.14,2.01-.43,2.73-.28.73-.7,1.27-1.25,1.63-.55.36-1.24.54-2.07.54h-.12Z"/>
        <path class="cls-2" d="m44.1,124.75c-.93,0-1.73-.16-2.43-.48s-1.27-.74-1.72-1.28c-.46-.54-.8-1.13-1.03-1.79-.23-.66-.35-1.33-.35-2.02v-.38c0-.71.12-1.4.35-2.07.23-.67.57-1.26,1.02-1.78.45-.52,1.01-.94,1.69-1.25.68-.31,1.46-.47,2.35-.47,1.16,0,2.14.25,2.92.76.79.51,1.38,1.18,1.77,2s.59,1.71.59,2.66v1.01h-9.53v-1.7h7.79l-.83.83c0-.69-.1-1.27-.31-1.76-.21-.49-.5-.87-.9-1.13s-.9-.4-1.51-.4-1.12.14-1.54.43c-.42.28-.74.68-.96,1.2-.22.52-.33,1.14-.33,1.86,0,.67.11,1.27.32,1.79s.54.93.97,1.23c.44.3.99.45,1.66.45s1.2-.14,1.62-.41c.42-.27.69-.6.81-1h2.56c-.16.74-.46,1.39-.91,1.94s-1.02.98-1.71,1.29-1.48.46-2.37.46Z"/>
        <path class="cls-2" d="m57.89,124.73c-.88,0-1.66-.19-2.34-.56s-1.2-.92-1.58-1.64c-.38-.72-.6-1.6-.63-2.63h.42v4.48h-2.18v-14.46h2.75v7.25l-.73,1.11c.05-1.11.27-2.03.66-2.77.39-.74.91-1.29,1.57-1.66.66-.37,1.41-.55,2.24-.55.74,0,1.41.14,2.02.42s1.13.66,1.57,1.16c.44.5.77,1.07,1,1.73s.35,1.38.35,2.16v.42c0,.78-.12,1.51-.36,2.18-.24.67-.58,1.27-1.03,1.77-.45.51-.99.91-1.61,1.19-.63.28-1.33.43-2.11.43Zm-.61-2.32c.58,0,1.1-.15,1.54-.45.45-.3.8-.7,1.04-1.22.24-.52.37-1.11.37-1.78s-.13-1.26-.38-1.77c-.25-.51-.6-.9-1.04-1.18-.44-.28-.96-.42-1.54-.42-.54,0-1.04.12-1.5.37-.46.24-.83.59-1.11,1.05-.29.46-.43,1.01-.43,1.65v.79c0,.62.14,1.15.44,1.58.29.44.67.77,1.13,1.01s.95.36,1.47.36Z"/>
        <path class="cls-2" d="m64.21,111.97v-2.06h4.1v2.06h-4.1Zm1.35,12.4v-14.46h2.75v14.46h-2.75Z"/>
        <path class="cls-2" d="m76.28,124.75c-.92,0-1.73-.16-2.43-.48s-1.27-.74-1.72-1.28c-.46-.54-.8-1.13-1.03-1.79-.23-.66-.35-1.33-.35-2.02v-.38c0-.71.12-1.4.35-2.07.23-.67.57-1.26,1.02-1.78.45-.52,1.01-.94,1.69-1.25.68-.31,1.46-.47,2.35-.47,1.16,0,2.14.25,2.92.76.79.51,1.38,1.18,1.77,2s.59,1.71.59,2.66v1.01h-9.53v-1.7h7.79l-.83.83c0-.69-.1-1.27-.31-1.76s-.5-.87-.9-1.13c-.4-.26-.9-.4-1.51-.4s-1.12.14-1.55.43-.74.68-.96,1.2-.33,1.14-.33,1.86c0,.67.11,1.27.32,1.79.21.52.54.93.97,1.23.44.3.99.45,1.66.45s1.2-.14,1.62-.41c.42-.27.69-.6.81-1h2.56c-.16.74-.46,1.39-.91,1.94s-1.02.98-1.71,1.29-1.48.46-2.37.46Z"/>
        <path class="cls-2" d="m87.65,124.71c-1.48,0-2.64-.31-3.48-.94-.84-.63-1.29-1.5-1.34-2.61h2.5c.04.37.24.71.61,1.01.37.3.95.46,1.74.46.65,0,1.17-.12,1.56-.36s.59-.56.59-.97c0-.34-.15-.62-.45-.83-.3-.21-.81-.36-1.54-.44l-.93-.1c-1.21-.12-2.15-.46-2.79-1.02-.65-.56-.97-1.3-.97-2.23,0-.74.18-1.36.55-1.86.37-.5.88-.88,1.54-1.14.65-.26,1.41-.39,2.27-.39,1.32,0,2.39.29,3.21.87.82.58,1.25,1.44,1.29,2.58h-2.48c-.04-.38-.23-.71-.56-.97-.34-.26-.83-.4-1.48-.4-.58,0-1.03.11-1.35.34s-.48.52-.48.87.13.61.39.79.68.31,1.26.38l.95.1c1.27.13,2.26.48,2.98,1.05.72.57,1.08,1.33,1.08,2.3,0,.71-.2,1.33-.58,1.86s-.93.93-1.63,1.22c-.7.28-1.53.43-2.48.43Z"/>
      </g>
      <path class="cls-1" d="m7.51,1.35h90.59v26.15l-5.16,6.4-1.91,1.95,6.29,6.52v27.85L6.49,4.5c-1.37-.99-.67-3.15,1.02-3.15Z"/>
      <g>
        <path class="cls-2" d="m91.03,73.78H9.83c-4.52,0-8.19,3.67-8.19,8.19v16.28c0,.94.76,1.71,1.71,1.71s1.71-.76,1.71-1.71v-16.28c0-2.63,2.14-4.78,4.78-4.78h81.2c2.63,0,4.78,2.14,4.78,4.78v15.87c0,.94.76,1.71,1.71,1.71s1.71-.76,1.71-1.71v-15.87c0-4.52-3.67-8.19-8.19-8.19Z"/>
        <path class="cls-2" d="m0,42.68v17.86C0,66.7,5.01,71.71,11.17,71.71h88.05v-26.15c0-4.16-2.29-7.78-5.66-9.71,3.38-1.92,5.66-5.55,5.66-9.71V0H11.17C5.01,0,0,5.01,0,11.17v19.47c0,2.35,1.23,4.42,3.07,5.61C1.2,37.77,0,40.09,0,42.68Zm95.8,25.61H11.17c-4.28,0-7.75-3.48-7.75-7.76v-17.86c0-2.69,2.19-4.88,4.88-4.88h79.76c4.28,0,7.76,3.48,7.76,7.76v22.74ZM3.41,11.17c0-4.28,3.48-7.76,7.75-7.76h84.64v22.74c0,4.28-3.48,7.76-7.75,7.76H6.68c-1.8,0-3.27-1.47-3.27-3.27V11.17Z"/>
      </g>
      <path class="cls-2" d="m53.7,50.76c0,2.03-1.65,3.68-3.68,3.68s-3.69-1.65-3.69-3.68,1.65-3.68,3.69-3.68,3.68,1.65,3.68,3.68"/>
      <path class="cls-2" d="m53.29,18.66c0,2.03-1.65,3.68-3.68,3.68s-3.69-1.65-3.69-3.68,1.65-3.68,3.69-3.68,3.68,1.65,3.68,3.68"/>
    </g>
  </g>
</svg>