<?xml version="1.0" encoding="UTF-8"?>
<svg id="Capa_2" data-name="Capa 2" xmlns="http://www.w3.org/2000/svg" viewBox="0 0 98.76 124.45">
  <defs>
    <style>
      .cls-1 {
        fill: #87be3f;
      }

      .cls-1, .cls-2 {
        stroke-width: 0px;
      }

      .cls-2 {
        fill: #fff;
      }
    </style>
  </defs>
  <g id="Capa_1-2" data-name="Capa 1">
    <g>
      <g>
        <path class="cls-2" d="m11.07,124.08v-14.46h3.84l3.63,8.64h.36l3.61-8.64h3.9v14.46h-2.79v-12.34l.36.04-3.9,9.35h-2.87l-3.92-9.35.38-.04v12.34h-2.58Z"/>
        <path class="cls-2" d="m32.79,124.35c-.78,0-1.46-.14-2.04-.42-.58-.28-1.03-.67-1.36-1.19-.32-.52-.49-1.14-.49-1.86,0-.79.19-1.44.58-1.94.38-.5.93-.88,1.64-1.13.71-.25,1.54-.38,2.5-.38h2.48v1.66h-2.52c-.63,0-1.12.15-1.46.46s-.51.7-.51,1.19.17.89.51,1.19.82.46,1.46.46c.38,0,.74-.07,1.06-.21.32-.14.59-.38.8-.71s.33-.8.36-1.38l.67.77c-.07.75-.25,1.39-.54,1.9-.3.51-.71.91-1.23,1.18-.52.27-1.16.41-1.91.41Zm3.47-.28v-3.19h-.46v-3.55c0-.61-.15-1.07-.46-1.38s-.77-.47-1.39-.47c-.33,0-.73,0-1.19.02-.46.01-.93.03-1.4.05-.47.02-.89.04-1.26.07v-2.34c.3-.03.64-.05,1.02-.08.38-.03.77-.04,1.18-.05.41,0,.79,0,1.15,0,1.11,0,2.03.15,2.76.44.73.29,1.29.75,1.66,1.38.38.63.56,1.44.56,2.45v6.66h-2.2Z"/>
        <path class="cls-2" d="m45.87,124.43c-.77,0-1.46-.14-2.09-.42s-1.17-.66-1.63-1.16-.82-1.08-1.07-1.75c-.25-.67-.38-1.4-.38-2.18v-.42c0-.77.12-1.49.36-2.16s.58-1.26,1.03-1.76c.45-.5.98-.89,1.6-1.18.62-.28,1.31-.43,2.08-.43.84,0,1.59.18,2.24.54.65.36,1.16.91,1.54,1.63s.58,1.64.62,2.73l-.81-.93v-7.35h2.77v14.46h-2.2v-4.56h.47c-.04,1.08-.26,1.99-.67,2.72-.41.73-.95,1.28-1.61,1.64-.67.36-1.42.54-2.25.54Zm.62-2.32c.54,0,1.03-.12,1.48-.37s.8-.6,1.07-1.07c.27-.47.41-1.02.41-1.65v-.79c0-.62-.14-1.15-.42-1.58-.28-.44-.64-.77-1.09-1s-.93-.35-1.45-.35c-.6,0-1.12.15-1.58.44-.46.29-.81.69-1.07,1.2-.26.51-.39,1.11-.39,1.79s.13,1.29.4,1.79c.26.51.62.9,1.08,1.18.46.28.97.42,1.56.42Z"/>
        <path class="cls-2" d="m60.07,124.45c-.93,0-1.73-.16-2.43-.47-.69-.32-1.27-.74-1.72-1.28s-.8-1.13-1.03-1.79c-.23-.66-.35-1.33-.35-2.02v-.38c0-.71.12-1.4.35-2.07.23-.67.57-1.26,1.02-1.78.45-.52,1.01-.94,1.69-1.25.68-.31,1.46-.47,2.35-.47,1.16,0,2.14.25,2.92.76.79.51,1.38,1.18,1.77,2s.59,1.71.59,2.67v1.01h-9.53v-1.7h7.79l-.83.83c0-.69-.1-1.27-.31-1.76-.21-.49-.5-.87-.9-1.13-.4-.26-.9-.4-1.51-.4s-1.12.14-1.54.43c-.42.28-.74.68-.96,1.2-.22.52-.33,1.14-.33,1.86,0,.67.11,1.27.32,1.79s.54.93.97,1.23c.44.3.99.45,1.66.45s1.2-.13,1.62-.41c.42-.27.69-.6.81-1h2.56c-.16.74-.46,1.39-.91,1.94s-1.02.98-1.71,1.29-1.48.46-2.37.46Z"/>
        <path class="cls-2" d="m67.54,124.08v-10.76h2.18v4.56h-.06c0-1.53.33-2.7.99-3.5.66-.8,1.63-1.2,2.91-1.2h.4v2.4h-.75c-.92,0-1.64.25-2.15.75-.51.5-.76,1.22-.76,2.16v5.59h-2.75Z"/>
        <path class="cls-2" d="m78.84,124.35c-.78,0-1.46-.14-2.04-.42-.58-.28-1.03-.67-1.36-1.19-.32-.52-.49-1.14-.49-1.86,0-.79.19-1.44.58-1.94.38-.5.93-.88,1.64-1.13.71-.25,1.55-.38,2.5-.38h2.48v1.66h-2.52c-.63,0-1.12.15-1.46.46-.34.3-.51.7-.51,1.19s.17.89.51,1.19c.34.3.82.46,1.46.46.38,0,.74-.07,1.06-.21s.59-.38.8-.71.33-.8.36-1.38l.67.77c-.07.75-.25,1.39-.54,1.9-.3.51-.71.91-1.23,1.18-.52.27-1.16.41-1.91.41Zm3.47-.28v-3.19h-.46v-3.55c0-.61-.15-1.07-.46-1.38-.3-.31-.77-.47-1.39-.47-.33,0-.73,0-1.19.02-.46.01-.93.03-1.4.05-.47.02-.89.04-1.26.07v-2.34c.3-.03.64-.05,1.02-.08.38-.03.77-.04,1.18-.05.41,0,.79,0,1.15,0,1.11,0,2.03.15,2.76.44.73.29,1.29.75,1.66,1.38.38.63.56,1.44.56,2.45v6.66h-2.2Z"/>
        <path class="cls-2" d="m91.36,124.41c-1.48,0-2.64-.31-3.48-.94s-1.28-1.5-1.34-2.61h2.5c.04.37.24.71.61,1.01s.95.46,1.74.46c.65,0,1.17-.12,1.57-.36.4-.24.59-.56.59-.97,0-.34-.15-.62-.45-.83-.3-.21-.81-.36-1.54-.44l-.93-.1c-1.22-.12-2.15-.46-2.79-1.02-.65-.56-.97-1.3-.97-2.23,0-.74.19-1.36.55-1.86.37-.5.88-.88,1.54-1.14s1.41-.39,2.27-.39c1.32,0,2.39.29,3.21.87s1.25,1.44,1.29,2.58h-2.48c-.04-.38-.23-.71-.56-.97-.34-.26-.83-.4-1.48-.4-.58,0-1.03.11-1.35.34-.32.22-.48.51-.48.87s.13.61.39.79c.26.18.68.31,1.26.38l.95.1c1.27.13,2.26.48,2.98,1.05.72.57,1.08,1.33,1.08,2.3,0,.71-.2,1.33-.58,1.86-.39.53-.93.93-1.63,1.22-.7.28-1.53.43-2.48.43Z"/>
      </g>
      <path class="cls-1" d="m94.85,95.25c-14.86-14.93-29.72-29.87-44.58-44.8-.69-.68-1.79-.68-2.48,0-15.45,15.51-29.66,29.78-45.11,45.3,31.14-.58,61.04.08,92.17-.49Z"/>
      <g>
        <path class="cls-2" d="m7.45,0C3.36,0,.03,3.33.03,7.42v21.49c-.04.21-.04.43,0,.65v69.18h91.17c4.17,0,7.56-3.39,7.56-7.56V0H7.45Zm83.75,95.31h-17.88l18.45-18.45c.68-.68.68-1.78,0-2.46-.68-.68-1.78-.68-2.46,0l-20.62,20.62c-.09.09-.17.19-.23.29h-29.24l7.39-7.57c.67-.69.66-1.79-.03-2.46-.69-.67-1.79-.66-2.46.03l-9.53,9.76c-.07.08-.13.16-.19.24H3.44v-30.34L37.46,30.95c.67-.67.67-1.75,0-2.41s-1.75-.67-2.41,0L3.44,60.14v-30.15L22.72,11.25c.69-.67.7-1.77.03-2.46s-1.77-.7-2.46-.04L3.44,25.14V7.42c0-2.21,1.8-4.01,4.01-4.01h85.07l-53.12,53.44c-.66.67-.66,1.75,0,2.41.33.33.77.5,1.2.5s.88-.17,1.21-.5L95.34,5.41v85.76c0,2.29-1.86,4.15-4.15,4.15Z"/>
        <path class="cls-2" d="m89.61,38.05l-35.47,36.42c-.67.69-.66,1.79.03,2.46.34.33.78.49,1.21.49s.9-.18,1.25-.53l35.47-36.42c.67-.69.66-1.79-.03-2.46-.69-.67-1.79-.66-2.46.03Z"/>
        <path class="cls-2" d="m46.22,20.52c.45,0,.9-.18,1.24-.52l9.53-9.76c.67-.69.66-1.79-.03-2.46-.69-.67-1.79-.66-2.46.03l-9.53,9.76c-.67.69-.66,1.79.03,2.46.34.33.78.49,1.21.49Z"/>
        <path class="cls-2" d="m29.88,66.1l-16.02,16.25c-.66.67-.65,1.75.02,2.41.33.33.77.49,1.2.49s.88-.17,1.21-.51l16.02-16.25c.66-.67.65-1.75-.02-2.41-.67-.66-1.75-.65-2.41.02Z"/>
      </g>
    </g>
  </g>
</svg>